<svg width="648" height="907" viewBox="0 0 648 907" fill="none" xmlns="http://www.w3.org/2000/svg">
<path d="M648 536.899C648.031 602.855 639.532 668.538 622.714 732.313C622.722 732.422 622.722 732.53 622.714 732.639C621.649 736.695 620.553 740.752 619.398 744.778C610.212 777.147 598.907 808.877 585.556 839.761C575.687 862.599 564.702 884.815 552.602 906.409H-48V0.398438H426.738C497.1 70.8711 552.863 154.537 590.832 246.6C628.8 338.663 648.227 437.314 648 536.899Z" fill="url(#paint0_linear_4327_96)"/>
<path d="M642.019 601.396C642.042 645.366 637.527 689.221 628.547 732.264C628.555 732.372 628.555 732.481 628.547 732.59C625.685 746.288 622.379 759.81 618.629 773.153C605.668 819.486 587.46 864.188 564.357 906.39H-48V0.378906H213.204C338.389 43.3935 447.01 124.44 523.891 232.194C600.771 339.948 642.071 469.027 642.019 601.396Z" fill="#00BC57"/>
<defs>
<linearGradient id="paint0_linear_4327_96" x1="-48" y1="453.345" x2="648" y2="453.345" gradientUnits="userSpaceOnUse">
<stop offset="0.15" stop-color="#00D563"/>
<stop offset="1" stop-color="#4B823D"/>
</linearGradient>
</defs>
</svg>
