<svg width="33" height="33" viewBox="0 0 33 33" fill="none" xmlns="http://www.w3.org/2000/svg">
<mask id="mask0_3628_1267" style="mask-type:luminance" maskUnits="userSpaceOnUse" x="0" y="0" width="33" height="33">
<path d="M6.07637 3.51918C5.39005 3.51918 4.83241 4.08134 4.83241 4.77323C4.83241 5.46512 5.39005 6.02728 6.07637 6.02728C6.7627 6.02728 7.32034 5.46512 7.32034 4.77323C7.32034 4.08134 6.7627 3.51918 6.07637 3.51918ZM22.5825 16.1376L18.7391 22.8489H15.2903H11.2753C10.8206 22.2262 10.0914 21.8197 9.26779 21.8197C8.4442 21.8197 7.71498 22.2262 7.26029 22.8489H7.22597V22.8921C6.94286 23.2986 6.77986 23.7916 6.77986 24.3278C6.77986 24.864 6.94286 25.357 7.22597 25.7635V25.8067H7.26029C7.71498 26.4294 8.4442 26.8359 9.26779 26.8359C10.0914 26.8359 10.8206 26.4294 11.2753 25.8067H20.412L20.841 25.063L25.9541 16.1376L20.412 6.46837H8.39273C7.8694 7.19485 7.02865 7.66188 6.07637 7.66188C4.49782 7.66188 3.21096 6.37323 3.21096 4.77323C3.21096 3.18188 4.48924 1.88458 6.07637 1.88458C7.02865 1.88458 7.87798 2.35161 8.39273 3.0781H22.3595L26.0914 9.59918L29.8319 16.1289L26.0914 22.6586V22.6673L22.3595 29.1884H3.87155V17.6078H12.9311C13.3858 18.2305 14.115 18.637 14.9386 18.637C16.3112 18.637 17.4265 17.5127 17.4265 16.1289C17.4265 14.7451 16.3112 13.6208 14.9386 13.6208C14.115 13.6208 13.3858 14.0273 12.9311 14.65H3.87155H2.87637C1.81257 14.6586 0.9375 15.5321 0.9375 16.6132V17.6165V30.1916C0.9375 31.264 1.81257 32.1462 2.87637 32.1462H22.9171C23.6292 32.1462 24.2383 31.7916 24.5986 31.1689L28.6222 24.1462L32.6458 17.1235C32.9976 16.5008 32.9976 15.7916 32.6458 15.1689L24.5986 1.1062C24.2469 0.483501 23.6378 0.128906 22.9171 0.128906H2.87637C1.81257 0.128906 0.9375 1.01107 0.9375 2.0835V7.46296C0.9375 8.53539 1.81257 9.41755 2.87637 9.41755H3.87155H10.16H15.2989H18.7477L22.5825 16.1376Z" fill="white"/>
</mask>
<g mask="url(#mask0_3628_1267)">
<path d="M33.0061 0.128906H0.9375V32.1376H33.0061V0.128906Z" fill="#00D563"/>
</g>
</svg>
