<svg width="232" height="233" viewBox="0 0 232 233" fill="none" xmlns="http://www.w3.org/2000/svg">
<circle cx="116" cy="116.754" r="112" fill="white" stroke="#E3E8F4" stroke-width="8"/>
<path d="M220.616 76.8184C222.69 76.0264 223.737 73.6988 222.873 71.6527C212.99 48.2321 195.667 28.6678 173.528 16.0241C150.224 2.71463 123.026 -2.10263 96.5677 2.39314C70.1097 6.8889 46.0291 20.4195 28.4289 40.6796C10.8287 60.9396 0.797902 86.6755 0.0455867 113.502C-0.706728 140.329 7.86601 166.586 24.3031 187.801C40.7402 209.016 64.0247 223.874 90.1891 229.846C116.354 235.817 143.779 232.532 167.793 220.549C190.605 209.166 208.997 190.604 220.178 167.774C221.154 165.779 220.24 163.397 218.213 162.49C216.186 161.583 213.814 162.495 212.832 164.487C202.416 185.619 185.349 202.801 164.202 213.353C141.853 224.505 116.329 227.563 91.9786 222.005C67.6281 216.448 45.9579 202.619 30.6603 182.875C15.3628 163.132 7.38438 138.694 8.08454 113.728C8.7847 88.7608 18.1201 64.8091 34.5001 45.9537C50.8801 27.0982 73.2912 14.5057 97.9149 10.3216C122.539 6.13753 147.851 10.6208 169.54 23.0076C190.063 34.7285 206.139 52.8397 215.355 74.5229C216.224 76.5667 218.541 77.6104 220.616 76.8184Z" fill="#00D563"/>
</svg>
