<svg width="126" height="40" viewBox="0 0 126 40" fill="none" xmlns="http://www.w3.org/2000/svg">
<g clip-path="url(#clip0_3628_1265)">
<mask id="mask0_3628_1265" style="mask-type:luminance" maskUnits="userSpaceOnUse" x="0" y="0" width="41" height="41">
<path d="M7.32203 4.23784C6.46412 4.23784 5.76707 4.94054 5.76707 5.80541C5.76707 6.67027 6.46412 7.37297 7.32203 7.37297C8.17994 7.37297 8.87699 6.67027 8.87699 5.80541C8.87699 4.94054 8.17994 4.23784 7.32203 4.23784ZM27.9547 20.0108L23.1504 28.4H18.8395H13.8207C13.2523 27.6216 12.3408 27.1135 11.3113 27.1135C10.2818 27.1135 9.37029 27.6216 8.80192 28.4H8.75903V28.4541C8.40514 28.9622 8.20139 29.5784 8.20139 30.2486C8.20139 30.9189 8.40514 31.5351 8.75903 32.0432V32.0973H8.80192C9.37029 32.8757 10.2818 33.3838 11.3113 33.3838C12.3408 33.3838 13.2523 32.8757 13.8207 32.0973H25.2416L25.7778 31.1676L32.1692 20.0108L25.2416 7.92432H10.2175C9.56332 8.83243 8.51238 9.41622 7.32203 9.41622C5.34884 9.41622 3.74026 7.80541 3.74026 5.80541C3.74026 3.81622 5.33812 2.19459 7.32203 2.19459C8.51238 2.19459 9.57404 2.77838 10.2175 3.68649H27.6759L32.3408 11.8378L37.0164 20L32.3408 28.1622V28.173L27.6759 36.3243H4.566V21.8486H15.8904C16.4588 22.627 17.3703 23.1351 18.3998 23.1351C20.1156 23.1351 21.5097 21.7297 21.5097 20C21.5097 18.2703 20.1156 16.8649 18.3998 16.8649C17.3703 16.8649 16.4588 17.373 15.8904 18.1514H4.566H3.32203C1.99227 18.1622 0.898438 19.2541 0.898438 20.6054V21.8595V37.5784C0.898438 38.9189 1.99227 40.0216 3.32203 40.0216H28.373C29.2631 40.0216 30.0244 39.5784 30.4748 38.8L35.5043 30.0216L40.5338 21.2432C40.9735 20.4649 40.9735 19.5784 40.5338 18.8L30.4748 1.22162C30.0352 0.443243 29.2738 0 28.373 0H3.32203C1.99227 0 0.898438 1.1027 0.898438 2.44324V9.16757C0.898438 10.5081 1.99227 11.6108 3.32203 11.6108H4.566H12.4266H18.8502H23.1612L27.9547 20.0108Z" fill="white"/>
</mask>
<g mask="url(#mask0_3628_1265)">
<path d="M40.9842 0H0.898438V40.0108H40.9842V0Z" fill="#00D563"/>
</g>
</g>
<path d="M119.634 31.2969C118.834 31.2969 118.064 31.1969 117.324 30.9969C116.584 30.7769 115.904 30.4769 115.284 30.0969C114.664 29.6969 114.124 29.2169 113.664 28.6569L115.764 26.5569C116.264 27.1369 116.834 27.5769 117.474 27.8769C118.134 28.1569 118.874 28.2969 119.694 28.2969C120.434 28.2969 120.994 28.1869 121.374 27.9669C121.754 27.7469 121.944 27.4269 121.944 27.0069C121.944 26.5669 121.764 26.2269 121.404 25.9869C121.044 25.7469 120.574 25.5469 119.994 25.3869C119.434 25.2069 118.834 25.0269 118.194 24.8469C117.574 24.6669 116.974 24.4269 116.394 24.1269C115.834 23.8069 115.374 23.3769 115.014 22.8369C114.654 22.2969 114.474 21.5969 114.474 20.7369C114.474 19.8169 114.684 19.0269 115.104 18.3669C115.544 17.7069 116.154 17.1969 116.934 16.8369C117.734 16.4769 118.684 16.2969 119.784 16.2969C120.944 16.2969 121.964 16.5069 122.844 16.9269C123.744 17.3269 124.494 17.9369 125.094 18.7569L122.994 20.8569C122.574 20.3369 122.094 19.9469 121.554 19.6869C121.014 19.4269 120.394 19.2969 119.694 19.2969C119.034 19.2969 118.524 19.3969 118.164 19.5969C117.804 19.7969 117.624 20.0869 117.624 20.4669C117.624 20.8669 117.804 21.1769 118.164 21.3969C118.524 21.6169 118.984 21.8069 119.544 21.9669C120.124 22.1269 120.724 22.3069 121.344 22.5069C121.984 22.6869 122.584 22.9469 123.144 23.2869C123.724 23.6069 124.194 24.0469 124.554 24.6069C124.914 25.1469 125.094 25.8569 125.094 26.7369C125.094 28.1369 124.604 29.2469 123.624 30.0669C122.644 30.8869 121.314 31.2969 119.634 31.2969Z" fill="#00160A"/>
<path d="M105.233 31.2984C104.133 31.2984 103.153 31.0684 102.293 30.6084C101.433 30.1284 100.753 29.4784 100.253 28.6584C99.7734 27.8384 99.5334 26.9084 99.5334 25.8684V21.7284C99.5334 20.6884 99.7834 19.7584 100.283 18.9384C100.783 18.1184 101.463 17.4784 102.323 17.0184C103.183 16.5384 104.153 16.2984 105.233 16.2984C106.533 16.2984 107.703 16.6384 108.743 17.3184C109.803 17.9784 110.633 18.8784 111.233 20.0184C111.853 21.1384 112.163 22.4084 112.163 23.8284C112.163 25.2284 111.853 26.4984 111.233 27.6384C110.633 28.7584 109.803 29.6484 108.743 30.3084C107.703 30.9684 106.533 31.2984 105.233 31.2984ZM104.693 28.1784C105.493 28.1784 106.193 27.9984 106.793 27.6384C107.413 27.2584 107.893 26.7384 108.233 26.0784C108.593 25.4184 108.773 24.6584 108.773 23.7984C108.773 22.9384 108.593 22.1784 108.233 21.5184C107.893 20.8584 107.413 20.3484 106.793 19.9884C106.193 19.6084 105.493 19.4184 104.693 19.4184C103.893 19.4184 103.183 19.6084 102.563 19.9884C101.943 20.3484 101.463 20.8584 101.123 21.5184C100.783 22.1784 100.613 22.9384 100.613 23.7984C100.613 24.6584 100.783 25.4184 101.123 26.0784C101.463 26.7384 101.943 27.2584 102.563 27.6384C103.183 27.9984 103.893 28.1784 104.693 28.1784ZM97.5234 30.9984V9.39844H100.823V20.1384L100.253 23.6184L100.823 27.1284V30.9984H97.5234Z" fill="#00160A"/>
<path d="M86.1488 31.2969C84.8487 31.2969 83.6687 30.9669 82.6087 30.3069C81.5687 29.6469 80.7387 28.7569 80.1187 27.6369C79.5187 26.4969 79.2188 25.2269 79.2188 23.8269C79.2188 22.4069 79.5187 21.1369 80.1187 20.0169C80.7387 18.8769 81.5687 17.9769 82.6087 17.3169C83.6687 16.6369 84.8487 16.2969 86.1488 16.2969C87.2487 16.2969 88.2187 16.5369 89.0588 17.0169C89.9187 17.4769 90.5988 18.1169 91.0988 18.9369C91.5988 19.7569 91.8488 20.6869 91.8488 21.7269V25.8669C91.8488 26.9069 91.5988 27.8369 91.0988 28.6569C90.6188 29.4769 89.9487 30.1269 89.0887 30.6069C88.2287 31.0669 87.2487 31.2969 86.1488 31.2969ZM86.6888 28.1769C87.9088 28.1769 88.8887 27.7669 89.6287 26.9469C90.3887 26.1269 90.7687 25.0769 90.7687 23.7969C90.7687 22.9369 90.5988 22.1769 90.2588 21.5169C89.9188 20.8569 89.4387 20.3469 88.8187 19.9869C88.2187 19.6069 87.5088 19.4169 86.6888 19.4169C85.8888 19.4169 85.1788 19.6069 84.5588 19.9869C83.9588 20.3469 83.4788 20.8569 83.1188 21.5169C82.7788 22.1769 82.6087 22.9369 82.6087 23.7969C82.6087 24.6569 82.7788 25.4169 83.1188 26.0769C83.4788 26.7369 83.9588 27.2569 84.5588 27.6369C85.1788 27.9969 85.8888 28.1769 86.6888 28.1769ZM90.5588 30.9969V27.1269L91.1287 23.6169L90.5588 20.1369V16.5969H93.8587V30.9969H90.5588Z" fill="#00160A"/>
<path d="M73.1484 30.9984V9.39844H76.4484V30.9984H73.1484Z" fill="#00160A"/>
<path d="M67.0972 31L60.9172 21.64H60.2872L51.9772 10H56.0572L62.2672 18.82H62.8972L71.1172 31H67.0972ZM51.6172 31L59.5972 19.78L61.9672 21.79L55.4872 31H51.6172ZM63.1372 20.95L60.7672 18.94L66.8872 10H70.7572L63.1372 20.95Z" fill="#00160A"/>
<defs>
<clipPath id="clip0_3628_1265">
<rect width="40" height="40" fill="white" transform="translate(0.898438)"/>
</clipPath>
</defs>
</svg>
