<svg width="366" height="502" viewBox="0 0 366 502" fill="none" xmlns="http://www.w3.org/2000/svg">
<g opacity="0.4" clip-path="url(#clip0_3638_22)">
<path d="M397.114 1.86741C296.773 -7.74353 206.472 24.7878 137.523 81.1577C59.6029 144.916 8.954 239.223 1.9035 337.856C-0.356002 368.85 1.85398 400.005 8.4672 430.387C27.0802 515.263 63.0455 577.005 105.931 621.91C225.572 747.196 399.009 741.429 399.009 741.429C399.009 741.429 315.499 576.439 313.942 581.707C312.386 586.976 177.088 669.158 177.088 669.158L469.914 730.686L388.846 632.808L271.379 716.604L153.589 469.362L103.662 601.513L284.21 646.255L128.065 432.214L158.171 643.312L276.612 220.01L22.7595 459.039L287.688 382.177L10.4233 317.175L86.0053 476.373L163.378 292.89L23.0203 383.293L69.2093 560.349L151.198 380.496L29.4883 255.965L331.825 211.386L382.109 8.3548L167.299 285.708L171.35 70.045L320.967 284.06L56.8905 193.331L354.315 458.919L52.2742 342.292L294.599 18.9955L370.355 395.298L225.242 45.7259L378.318 154.184L124.579 112.187L298.277 300.356L27.1236 282.627L292.2 453.504L162.97 656.638L414.918 615.174L243.585 449.265L319.993 720.843L433.879 586.221L431.845 730.591L377.553 412.581L314.134 549.451L434.879 575.023L423.256 398.413L422.725 390.407L397.114 1.86741Z" stroke="white" stroke-width="0.25" stroke-miterlimit="10"/>
<path opacity="0.5" d="M245.469 449.431C245.513 448.936 245.356 448.444 245.032 448.064C244.709 447.683 244.245 447.445 243.744 447.402C243.242 447.358 242.744 447.514 242.358 447.833C241.973 448.152 241.731 448.61 241.688 449.105C241.666 449.35 241.693 449.597 241.768 449.832C241.843 450.066 241.964 450.284 242.125 450.473C242.448 450.853 242.912 451.091 243.413 451.134C243.662 451.156 243.912 451.129 244.149 451.055C244.387 450.981 244.608 450.861 244.799 450.703C245.184 450.384 245.426 449.926 245.469 449.431V449.431Z" fill="white"/>
<path opacity="0.5" d="M294.087 453.669C294.108 453.423 294.08 453.175 294.004 452.939C293.929 452.703 293.806 452.485 293.645 452.296C293.483 452.107 293.286 451.951 293.063 451.838C292.841 451.725 292.598 451.656 292.348 451.635C291.845 451.595 291.345 451.752 290.959 452.074C290.573 452.396 290.332 452.855 290.288 453.351C290.266 453.597 290.294 453.845 290.37 454.08C290.446 454.315 290.568 454.533 290.73 454.721C290.892 454.909 291.089 455.064 291.312 455.177C291.534 455.289 291.777 455.357 292.026 455.377C292.276 455.4 292.527 455.374 292.766 455.301C293.005 455.228 293.227 455.108 293.419 454.949C293.611 454.79 293.769 454.595 293.883 454.375C293.998 454.155 294.067 453.915 294.087 453.669Z" fill="white"/>
<path opacity="0.5" d="M29.0176 282.791C29.0469 282.423 28.9654 282.055 28.7832 281.733C28.601 281.41 28.3263 281.148 27.9937 280.98C27.661 280.811 27.2853 280.744 26.9139 280.785C26.5424 280.827 26.1917 280.976 25.906 281.214C25.6202 281.452 25.4122 281.769 25.3081 282.123C25.2039 282.478 25.2083 282.854 25.3207 283.206C25.433 283.558 25.6484 283.87 25.9396 284.101C26.2308 284.333 26.5849 284.474 26.9572 284.507C27.207 284.53 27.4587 284.503 27.6979 284.428C27.937 284.354 28.1589 284.233 28.3505 284.074C28.5422 283.914 28.6998 283.719 28.8143 283.498C28.9288 283.278 28.9979 283.038 29.0176 282.791V282.791Z" fill="white"/>
<path opacity="0.5" d="M300.173 300.522C300.194 300.276 300.166 300.027 300.09 299.792C300.015 299.556 299.892 299.338 299.731 299.149C299.569 298.96 299.372 298.804 299.149 298.691C298.927 298.578 298.684 298.509 298.434 298.488C298.185 298.466 297.933 298.493 297.695 298.567C297.456 298.642 297.235 298.762 297.044 298.922C296.853 299.082 296.696 299.277 296.583 299.498C296.469 299.718 296.401 299.958 296.382 300.204C296.361 300.451 296.389 300.699 296.465 300.934C296.54 301.17 296.663 301.388 296.824 301.577C296.986 301.766 297.183 301.922 297.406 302.035C297.628 302.149 297.871 302.218 298.121 302.238C298.624 302.278 299.122 302.12 299.506 301.799C299.891 301.477 300.131 301.018 300.173 300.522V300.522Z" fill="white"/>
<path opacity="0.5" d="M126.463 112.319C126.485 112.073 126.457 111.825 126.381 111.589C126.305 111.353 126.183 111.135 126.022 110.946C125.86 110.757 125.662 110.601 125.44 110.488C125.217 110.375 124.974 110.306 124.725 110.285C123.682 110.191 143.181 315.487 143.086 316.517C142.99 317.547 123.342 113.924 124.394 114.001C124.642 114.026 124.893 114.002 125.131 113.931C125.37 113.859 125.592 113.742 125.784 113.586C125.977 113.429 126.136 113.237 126.252 113.019C126.369 112.802 126.441 112.564 126.463 112.319V112.319Z" fill="white"/>
<path opacity="0.5" d="M227.135 45.9003C227.164 45.5324 227.083 45.1642 226.9 44.8419C226.718 44.5196 226.443 44.2578 226.111 44.0892C225.778 43.9207 225.403 43.8531 225.031 43.8948C224.66 43.9366 224.309 44.0858 224.023 44.3238C223.737 44.5619 223.529 44.878 223.425 45.2324C223.321 45.5869 223.325 45.9638 223.438 46.3158C223.55 46.6678 223.766 46.9791 224.057 47.2105C224.348 47.442 224.702 47.5833 225.074 47.6166C225.324 47.6378 225.575 47.6101 225.814 47.5353C226.053 47.4604 226.274 47.3399 226.465 47.1804C226.657 47.021 226.814 46.8259 226.929 46.6062C227.044 46.3866 227.114 46.1467 227.135 45.9003V45.9003Z" fill="white"/>
<path opacity="0.5" d="M296.484 19.161C296.507 18.9149 296.48 18.6669 296.404 18.4313C296.329 18.1958 296.207 17.9774 296.045 17.7889C295.883 17.6004 295.685 17.4456 295.462 17.3335C295.239 17.2213 294.995 17.1542 294.746 17.1358C294.496 17.1146 294.245 17.1423 294.006 17.2171C293.768 17.2919 293.546 17.4125 293.355 17.572C293.163 17.7314 293.006 17.9265 292.891 18.1462C292.776 18.3658 292.706 18.6057 292.685 18.8521C292.664 19.0983 292.692 19.3464 292.768 19.582C292.844 19.8176 292.966 20.0361 293.127 20.225C293.289 20.4139 293.486 20.5695 293.709 20.6829C293.932 20.7963 294.175 20.8653 294.424 20.8858C294.675 20.9081 294.927 20.881 295.167 20.8061C295.406 20.7312 295.629 20.6099 295.82 20.4494C296.012 20.2888 296.17 20.0922 296.284 19.8711C296.398 19.6499 296.466 19.4085 296.484 19.161V19.161Z" fill="white"/>
<path opacity="0.5" d="M54.1582 342.482C54.1876 342.114 54.106 341.746 53.9238 341.424C53.7416 341.102 53.4669 340.84 53.1343 340.671C52.8017 340.503 52.426 340.435 52.0545 340.477C51.683 340.519 51.3323 340.668 51.0466 340.906C50.7608 341.144 50.5528 341.46 50.4487 341.814C50.3445 342.169 50.3489 342.546 50.4613 342.898C50.5737 343.25 50.789 343.561 51.0802 343.793C51.3714 344.024 51.7255 344.165 52.0978 344.199C52.3474 344.22 52.5986 344.192 52.8373 344.117C53.076 344.042 53.2974 343.922 53.4888 343.762C53.6802 343.603 53.8378 343.408 53.9527 343.188C54.0676 342.969 54.1374 342.729 54.1582 342.482Z" fill="white"/>
<path opacity="0.5" d="M356.204 459.084C356.225 458.837 356.197 458.589 356.122 458.354C356.046 458.118 355.924 457.9 355.762 457.711C355.601 457.522 355.403 457.366 355.18 457.253C354.958 457.139 354.715 457.07 354.465 457.05C354.216 457.029 353.964 457.056 353.726 457.131C353.487 457.206 353.266 457.327 353.074 457.486C352.883 457.645 352.725 457.841 352.61 458.06C352.495 458.28 352.426 458.52 352.405 458.766C352.382 459.012 352.409 459.26 352.485 459.496C352.56 459.731 352.683 459.95 352.844 460.138C353.006 460.327 353.204 460.482 353.428 460.594C353.651 460.706 353.894 460.773 354.144 460.791C354.646 460.834 355.145 460.678 355.532 460.358C355.918 460.038 356.16 459.58 356.204 459.084Z" fill="white"/>
<path opacity="0.5" d="M58.7753 193.507C58.8049 193.138 58.7233 192.77 58.5408 192.447C58.3583 192.124 58.0832 191.862 57.7501 191.694C57.4169 191.526 57.0407 191.458 56.6689 191.501C56.2971 191.543 55.9463 191.693 55.6608 191.932C55.3752 192.171 55.1677 192.488 55.0644 192.843C54.9612 193.198 54.9667 193.575 55.0804 193.927C55.1941 194.279 55.4108 194.59 55.7032 194.821C55.9957 195.051 56.3507 195.191 56.7237 195.223C56.9727 195.244 57.2235 195.216 57.4617 195.141C57.6998 195.066 57.9206 194.946 58.1113 194.786C58.302 194.627 58.4589 194.431 58.5728 194.212C58.6868 193.992 58.7556 193.753 58.7753 193.507V193.507Z" fill="white"/>
<path opacity="0.5" d="M322.861 284.224C322.902 283.727 322.742 283.235 322.416 282.854C322.091 282.473 321.625 282.234 321.122 282.19C320.873 282.169 320.622 282.197 320.384 282.272C320.146 282.347 319.925 282.468 319.734 282.627C319.544 282.787 319.387 282.982 319.273 283.201C319.159 283.421 319.09 283.661 319.07 283.907C319.048 284.153 319.075 284.401 319.151 284.636C319.226 284.872 319.348 285.09 319.51 285.279C319.672 285.467 319.87 285.622 320.093 285.734C320.316 285.846 320.56 285.914 320.809 285.932C321.31 285.972 321.807 285.815 322.192 285.496C322.576 285.176 322.817 284.719 322.861 284.224V284.224Z" fill="white"/>
<path opacity="0.5" d="M173.244 70.2167C173.273 69.8488 173.192 69.4806 173.01 69.1583C172.828 68.836 172.553 68.5742 172.22 68.4057C171.888 68.2371 171.512 68.1695 171.14 68.2112C170.769 68.253 170.418 68.4022 170.133 68.6403C169.847 68.8783 169.639 69.1944 169.535 69.5488C169.43 69.9033 169.435 70.2802 169.547 70.6322C169.66 70.9842 169.875 71.2955 170.166 71.527C170.457 71.7584 170.811 71.8997 171.184 71.933C171.433 71.9542 171.685 71.9265 171.923 71.8517C172.162 71.7769 172.383 71.6563 172.575 71.4968C172.766 71.3374 172.924 71.1423 173.039 70.9226C173.154 70.703 173.223 70.4631 173.244 70.2167V70.2167Z" fill="white"/>
<path opacity="0.5" d="M169.182 285.881C169.211 285.513 169.129 285.145 168.947 284.822C168.765 284.5 168.49 284.238 168.158 284.07C167.825 283.901 167.449 283.834 167.078 283.875C166.706 283.917 166.356 284.066 166.07 284.304C165.784 284.542 165.576 284.858 165.472 285.213C165.368 285.567 165.372 285.944 165.485 286.296C165.597 286.648 165.812 286.96 166.104 287.191C166.395 287.422 166.749 287.564 167.121 287.597C167.371 287.619 167.623 287.593 167.862 287.518C168.101 287.444 168.323 287.323 168.515 287.164C168.706 287.004 168.864 286.808 168.978 286.588C169.093 286.368 169.162 286.128 169.182 285.881V285.881Z" fill="white"/>
<path opacity="0.5" d="M333.71 211.56C333.734 211.313 333.708 211.065 333.633 210.828C333.558 210.591 333.436 210.372 333.274 210.183C333.112 209.993 332.913 209.838 332.69 209.725C332.466 209.612 332.222 209.545 331.972 209.526C331.722 209.505 331.471 209.533 331.232 209.608C330.993 209.683 330.772 209.803 330.581 209.963C330.389 210.122 330.232 210.317 330.117 210.537C330.002 210.756 329.932 210.996 329.911 211.243C329.87 211.74 330.03 212.232 330.356 212.613C330.681 212.994 331.147 213.233 331.65 213.276C331.9 213.299 332.151 213.272 332.391 213.198C332.63 213.123 332.852 213.003 333.043 212.843C333.235 212.683 333.392 212.488 333.507 212.268C333.621 212.047 333.691 211.807 333.71 211.56V211.56Z" fill="white"/>
<path opacity="0.5" d="M31.4004 256.131C31.4297 255.763 31.3482 255.395 31.166 255.072C30.9838 254.75 30.7091 254.488 30.3765 254.32C30.0439 254.151 29.6682 254.084 29.2967 254.125C28.9252 254.167 28.5745 254.316 28.2888 254.554C28.003 254.792 27.795 255.108 27.6909 255.463C27.5867 255.817 27.5911 256.194 27.7035 256.546C27.8159 256.898 28.0312 257.21 28.3224 257.441C28.6136 257.672 28.9677 257.814 29.34 257.847C29.5895 257.868 29.8408 257.841 30.0795 257.766C30.3182 257.691 30.5396 257.57 30.731 257.411C30.9223 257.251 31.08 257.056 31.1949 256.837C31.3097 256.617 31.3796 256.377 31.4004 256.131Z" fill="white"/>
<path opacity="0.5" d="M153.088 380.662C153.117 380.294 153.036 379.926 152.853 379.604C152.671 379.281 152.397 379.019 152.064 378.851C151.731 378.682 151.356 378.615 150.984 378.657C150.613 378.698 150.262 378.848 149.976 379.086C149.691 379.324 149.483 379.64 149.378 379.994C149.274 380.349 149.279 380.726 149.391 381.077C149.503 381.429 149.719 381.741 150.01 381.972C150.301 382.204 150.655 382.345 151.028 382.378C151.277 382.399 151.528 382.372 151.767 382.297C152.006 382.222 152.227 382.102 152.418 381.942C152.61 381.783 152.768 381.588 152.882 381.368C152.997 381.148 153.067 380.908 153.088 380.662V380.662Z" fill="white"/>
<path opacity="0.5" d="M24.8691 383.483C24.8986 383.115 24.817 382.746 24.6345 382.424C24.4521 382.101 24.1769 381.839 23.8438 381.671C23.5107 381.502 23.1345 381.435 22.7627 381.477C22.3908 381.519 22.0401 381.67 21.7545 381.908C21.469 382.147 21.2615 382.464 21.1582 382.819C21.0549 383.174 21.0604 383.552 21.1741 383.904C21.2878 384.256 21.5045 384.567 21.797 384.797C22.0894 385.028 22.4445 385.168 22.8174 385.199C23.3199 385.24 23.8181 385.082 24.2027 384.76C24.5874 384.438 24.827 383.979 24.8691 383.483Z" fill="white"/>
<path opacity="0.5" d="M165.275 293.064C165.305 292.697 165.223 292.328 165.041 292.006C164.859 291.684 164.584 291.422 164.251 291.253C163.919 291.085 163.543 291.017 163.172 291.059C162.8 291.101 162.45 291.25 162.164 291.488C161.878 291.726 161.67 292.042 161.566 292.396C161.462 292.751 161.466 293.128 161.578 293.48C161.691 293.832 161.906 294.143 162.197 294.375C162.489 294.606 162.843 294.747 163.215 294.781C163.465 294.804 163.717 294.778 163.957 294.704C164.197 294.63 164.419 294.51 164.611 294.35C164.803 294.19 164.96 293.994 165.074 293.773C165.189 293.553 165.257 293.312 165.275 293.064V293.064Z" fill="white"/>
<path opacity="0.5" d="M87.8999 476.54C87.9409 476.043 87.7811 475.55 87.4553 475.169C87.1296 474.788 86.6644 474.549 86.1612 474.506C85.7885 474.477 85.4154 474.557 85.0889 474.737C84.7624 474.917 84.4971 475.188 84.3264 475.516C84.1557 475.845 84.0871 476.216 84.1294 476.582C84.1717 476.949 84.3229 477.295 84.5641 477.577C84.8052 477.859 85.1255 478.065 85.4846 478.167C85.8436 478.27 86.2255 478.266 86.5821 478.155C86.9387 478.044 87.2541 477.831 87.4886 477.544C87.7231 477.257 87.8662 476.907 87.8999 476.54Z" fill="white"/>
<path opacity="0.5" d="M12.3131 317.341C12.3569 316.846 12.1997 316.354 11.8761 315.974C11.5525 315.593 11.0889 315.355 10.5874 315.312C10.086 315.269 9.58759 315.424 9.20201 315.743C8.81643 316.063 8.5752 316.52 8.53139 317.015C8.5097 317.26 8.53714 317.507 8.61212 317.742C8.68711 317.976 8.80819 318.194 8.96843 318.383C9.12868 318.571 9.32495 318.727 9.54606 318.84C9.76717 318.954 10.0088 319.023 10.2571 319.045C10.5054 319.066 10.7555 319.039 10.9933 318.965C11.231 318.891 11.4516 318.771 11.6425 318.613C11.8334 318.455 11.9909 318.261 12.106 318.043C12.221 317.825 12.2914 317.586 12.3131 317.341V317.341Z" fill="white"/>
<path opacity="0.5" d="M289.579 382.35C289.6 382.104 289.572 381.856 289.497 381.62C289.421 381.384 289.299 381.166 289.137 380.977C288.976 380.788 288.778 380.632 288.555 380.519C288.333 380.406 288.09 380.337 287.84 380.316C287.59 380.294 287.339 380.321 287.1 380.395C286.86 380.469 286.639 380.59 286.447 380.75C286.255 380.909 286.098 381.105 285.983 381.325C285.869 381.545 285.8 381.786 285.78 382.032C285.758 382.279 285.786 382.527 285.862 382.762C285.938 382.998 286.06 383.217 286.222 383.405C286.383 383.594 286.581 383.75 286.803 383.863C287.026 383.977 287.269 384.046 287.519 384.066C287.768 384.087 288.019 384.06 288.258 383.985C288.497 383.91 288.718 383.789 288.91 383.63C289.101 383.471 289.259 383.276 289.373 383.056C289.488 382.836 289.558 382.596 289.579 382.35Z" fill="white"/>
<path opacity="0.5" d="M24.6582 459.206C24.6877 458.837 24.6061 458.469 24.4236 458.146C24.2411 457.824 23.966 457.562 23.6329 457.393C23.2997 457.225 22.9235 457.157 22.5517 457.2C22.1799 457.242 21.8291 457.392 21.5436 457.631C21.258 457.87 21.0505 458.187 20.9472 458.542C20.844 458.897 20.8495 459.274 20.9632 459.626C21.0769 459.978 21.2936 460.289 21.5861 460.52C21.8785 460.75 22.2335 460.89 22.6065 460.922C23.109 460.962 23.6072 460.804 23.9918 460.483C24.3764 460.161 24.6161 459.702 24.6582 459.206Z" fill="white"/>
<path opacity="0.5" d="M278.501 220.173C278.522 219.928 278.494 219.68 278.418 219.445C278.342 219.21 278.22 218.992 278.058 218.804C277.897 218.615 277.699 218.461 277.477 218.348C277.254 218.236 277.011 218.168 276.762 218.148C276.513 218.126 276.262 218.153 276.023 218.227C275.784 218.302 275.563 218.422 275.372 218.582C275.181 218.742 275.024 218.938 274.911 219.158C274.797 219.378 274.729 219.618 274.71 219.864C274.688 220.111 274.715 220.359 274.791 220.594C274.866 220.83 274.988 221.048 275.15 221.237C275.312 221.425 275.51 221.58 275.733 221.692C275.956 221.804 276.2 221.871 276.449 221.89C276.952 221.93 277.45 221.772 277.834 221.45C278.219 221.129 278.459 220.669 278.501 220.173Z" fill="white"/>
<path opacity="0.5" d="M129.947 432.397C129.977 432.029 129.895 431.66 129.713 431.338C129.53 431.015 129.255 430.753 128.922 430.585C128.589 430.416 128.213 430.349 127.841 430.391C127.469 430.434 127.118 430.584 126.833 430.822C126.547 431.061 126.34 431.378 126.236 431.733C126.133 432.088 126.139 432.466 126.252 432.818C126.366 433.17 126.583 433.481 126.875 433.711C127.168 433.942 127.523 434.082 127.896 434.113C128.398 434.154 128.896 433.996 129.281 433.674C129.666 433.352 129.905 432.893 129.947 432.397Z" fill="white"/>
<path opacity="0.5" d="M155.479 469.525C155.508 469.157 155.426 468.789 155.244 468.467C155.062 468.145 154.787 467.883 154.455 467.714C154.122 467.546 153.746 467.478 153.375 467.52C153.003 467.562 152.653 467.711 152.367 467.949C152.081 468.187 151.873 468.503 151.769 468.857C151.665 469.212 151.669 469.589 151.782 469.941C151.894 470.293 152.109 470.604 152.401 470.836C152.692 471.067 153.046 471.208 153.418 471.242C153.668 471.263 153.919 471.235 154.158 471.16C154.396 471.085 154.618 470.965 154.809 470.805C155 470.646 155.158 470.451 155.273 470.231C155.388 470.012 155.458 469.772 155.479 469.525V469.525Z" fill="white"/>
<path opacity="0.5" d="M10.3535 430.553C10.3829 430.185 10.3013 429.817 10.1191 429.494C9.93693 429.172 9.66223 428.91 9.3296 428.742C8.99697 428.573 8.62128 428.505 8.2498 428.547C7.87832 428.589 7.52764 428.738 7.2419 428.976C6.95616 429.214 6.74815 429.53 6.644 429.885C6.53985 430.239 6.54423 430.616 6.6566 430.968C6.76898 431.32 6.98433 431.631 7.27554 431.863C7.56674 432.094 7.92079 432.236 8.29315 432.269C8.54267 432.29 8.79396 432.262 9.03264 432.188C9.27132 432.113 9.49271 431.992 9.6841 431.833C9.8755 431.673 10.0331 431.478 10.148 431.259C10.2629 431.039 10.3327 430.799 10.3535 430.553V430.553Z" fill="white"/>
<path opacity="0.5" d="M3.79103 338.002C3.82037 337.634 3.73882 337.266 3.55663 336.943C3.37443 336.621 3.09973 336.359 2.7671 336.191C2.43447 336.022 2.05878 335.955 1.6873 335.996C1.31582 336.038 0.965135 336.187 0.679398 336.425C0.39366 336.663 0.185622 336.98 0.0814747 337.334C-0.0226729 337.688 -0.0182726 338.065 0.0941033 338.417C0.206479 338.769 0.421806 339.081 0.713012 339.312C1.00422 339.544 1.35829 339.685 1.73065 339.718C1.98039 339.74 2.23214 339.714 2.47131 339.639C2.71048 339.565 2.9323 339.444 3.12394 339.285C3.31558 339.125 3.47324 338.93 3.58775 338.709C3.70226 338.489 3.77134 338.249 3.79103 338.002Z" fill="white"/>
<path opacity="0.5" d="M139.407 81.3217C139.451 80.8267 139.293 80.3348 138.97 79.9542C138.646 79.5736 138.183 79.3355 137.681 79.2923C137.18 79.249 136.681 79.4042 136.296 79.7236C135.91 80.0431 135.669 80.5006 135.625 80.9956C135.584 81.4926 135.744 81.9853 136.07 82.3663C136.396 82.7473 136.861 82.9857 137.364 83.0294C137.864 83.0698 138.36 82.9126 138.743 82.5925C139.126 82.2724 139.365 81.8154 139.407 81.3217V81.3217Z" fill="white"/>
</g>
<defs>
<clipPath id="clip0_3638_22">
<rect width="366" height="502" fill="white" transform="matrix(-1 0 0 1 366 0)"/>
</clipPath>
</defs>
</svg>
