<svg width="1920" height="671" viewBox="0 0 1920 671" fill="none" xmlns="http://www.w3.org/2000/svg">
<g opacity="0.15" clip-path="url(#clip0_3827_14)">
<path d="M996.676 1215.4V1137.49L923.324 1095.13V1178.59L855.014 1218.18V1135.98L782.922 1177.58L713.352 1137.24V1060.84C715.368 1060.34 717.133 1058.32 717.133 1056.05C717.133 1055.55 717.133 1055.3 716.881 1054.79L783.679 1016.21L784.435 1015.96V931.245L712.343 972.847L641.512 932.001L570.681 972.847L501.111 932.505V852.074L573.202 810.472L501.111 768.869V685.412L427.507 727.519L426.751 727.771V808.202L361.969 770.634C361.969 770.13 362.221 769.878 362.221 769.373C362.221 767.104 360.709 765.087 358.44 764.583V606.493L428.767 565.9L429.523 565.647V480.93L356.676 523.036L355.92 523.289V605.233L286.349 645.575L218.039 605.989L287.105 566.152L287.861 565.9V481.182L215.014 523.289L214.258 523.541V685.916L149.476 648.348C149.476 647.844 149.728 647.592 149.728 647.087C149.728 644.818 148.216 642.801 145.947 642.297V564.387L76.3765 524.045L144.687 484.46L145.947 485.216V483.703L147.208 482.947L145.947 482.19V400.246L78.141 361.165C78.141 360.661 78.3931 360.409 78.3931 359.904C78.3931 357.131 76.1245 354.862 73.3517 354.862C70.579 354.862 68.3104 357.131 68.3104 359.904C68.3104 362.174 69.8228 364.191 72.0914 364.695V441.092L0 482.947L70.831 523.793L2.01654 563.63L1.26034 563.883V645.827L0 646.583L1.26034 647.34V729.284L70.831 769.373L1.76447 809.463L1.26034 809.715V894.433L74.1079 852.326L74.8641 852.074V771.643V688.186L140.906 649.861C141.41 650.365 142.418 650.869 143.174 651.122V729.032L212.745 769.373L143.679 809.463L142.922 809.715V891.659L76.8807 929.732C75.8724 928.723 74.8641 928.219 73.3517 928.219C70.579 928.219 68.3104 930.488 68.3104 933.262C68.3104 935.531 69.8228 937.548 72.0914 938.052V1096.39L1.76447 1136.99L1.26034 1137.24V1221.96V1302.39L72.0914 1343.23V1344.75L73.3517 1343.99L74.612 1344.75V1343.23L144.939 1302.64L145.695 1302.39V1217.67L77.1327 1257.26C76.1245 1256.25 75.1162 1255.74 73.6038 1255.74C72.3434 1255.74 71.0831 1256.25 70.0748 1257.26L5.04135 1219.94L72.3434 1181.11L144.435 1139.51L216.526 1181.36V1097.91L286.853 1057.31L287.609 1057.06V979.15C289.626 978.646 291.39 976.629 291.39 974.36C291.39 971.586 289.122 969.317 286.349 969.317C283.576 969.317 281.308 971.586 281.308 974.36C281.308 974.864 281.308 975.116 281.56 975.621L214.762 1014.2L214.006 1014.45V1094.88L145.695 1055.3V892.92L215.266 852.83L287.357 894.433V810.976L353.399 772.651C353.903 773.155 354.911 773.66 355.668 773.912V851.822L422.97 890.651C422.97 891.155 422.718 891.407 422.718 891.911C422.718 892.416 422.718 892.668 422.97 893.172L356.172 931.749L355.416 932.001V1095.64L289.626 1133.71C288.618 1132.45 287.357 1131.69 285.593 1131.69C282.82 1131.69 280.551 1133.96 280.551 1136.74C280.551 1139 282.064 1141.02 284.332 1141.53V1221.71L355.163 1180.86V1261.29L428.515 1303.65V1219.18L358.944 1179.09L427.507 1139.51L493.549 1177.83C493.549 1178.34 493.297 1178.59 493.297 1179.09C493.297 1181.87 495.565 1184.14 498.338 1184.14C501.111 1184.14 503.379 1181.87 503.379 1179.09C503.379 1176.83 501.867 1174.81 499.598 1174.3V1015.96L569.169 975.621L637.479 1015.21L568.413 1055.04L567.657 1055.3V1137.24L566.396 1138L567.657 1138.75V1219.18L497.33 1259.78L496.573 1260.03V1344.75L569.421 1302.64L570.177 1302.39V1221.96L638.488 1261.54V1263.06L639.748 1262.3L711.839 1303.9V1224.48C712.595 1224.23 713.604 1223.72 714.108 1223.22L780.15 1261.54V1345L850.981 1304.15L925.089 1262.05L925.845 1261.8V1181.36L990.626 1218.93C990.626 1219.44 990.374 1219.69 990.374 1220.19C990.374 1222.97 992.643 1225.24 995.415 1225.24C998.188 1225.24 1000.46 1222.97 1000.46 1220.19C1000.46 1217.67 998.692 1215.91 996.676 1215.4ZM216.526 524.549L284.837 484.964V563.883L216.526 603.468V524.549ZM72.0914 850.813L3.78102 890.147V811.228L72.0914 771.643V850.813ZM143.174 1222.21V1301.13L74.8641 1340.71V1265.83C76.8807 1265.32 78.6451 1263.31 78.6451 1261.04C78.6451 1260.53 78.6451 1260.28 78.3931 1259.78L143.174 1222.21ZM72.3434 1265.83V1340.71L3.78102 1301.13V1222.21L68.5624 1259.78C68.5624 1260.28 68.3104 1260.53 68.3104 1261.04C68.5624 1263.31 70.0748 1265.07 72.3434 1265.83ZM852.241 1219.18L783.931 1258.77V1179.85L852.241 1140.27V1219.18ZM710.579 1215.4C709.823 1215.65 708.814 1216.16 708.31 1216.66L643.529 1179.09L710.579 1140.27V1215.4ZM642.017 1096.39V1017.48L706.798 1055.04C706.798 1055.55 706.546 1055.8 706.546 1056.3C706.546 1058.57 708.058 1060.59 710.327 1061.09V1135.98L642.017 1096.39ZM710.579 1051.51C709.823 1051.77 708.814 1052.27 708.31 1052.77L643.529 1015.21L710.579 976.377V1051.51ZM640.756 1098.66L709.067 1138.25L678.062 1156.15L640.756 1177.58L572.446 1138L603.45 1120.09L640.756 1098.66ZM642.017 1181.36L706.798 1218.93C706.798 1219.44 706.546 1219.69 706.546 1220.19C706.546 1220.7 706.546 1220.95 706.798 1221.45L642.017 1259.02V1181.36ZM781.41 1014.45L715.368 1052.77C714.864 1052.27 713.856 1051.77 713.1 1051.51V975.116L781.41 935.531V1014.45ZM429.271 887.625V812.741L497.582 852.326V931.245L432.8 893.676C432.8 893.172 433.052 892.92 433.052 892.416C433.052 890.146 431.54 888.129 429.271 887.625ZM429.271 897.206C430.028 896.954 431.036 896.45 431.54 895.946L496.321 933.514L429.271 972.091V897.206ZM499.094 850.057L430.784 810.472L464.309 791.057L499.094 770.886L567.404 810.472L499.094 850.057ZM429.271 729.284L497.582 689.698V768.617L429.271 808.202V729.284ZM358.44 524.549L426.751 484.964V563.883L358.44 603.468V524.549ZM355.92 686.925L333.486 699.784L287.357 726.51V647.592L355.668 608.006V686.925H355.92ZM284.837 808.202L250.555 788.536L216.274 768.869V689.698L250.555 709.365L284.837 729.032V808.202ZM216.526 608.006L284.837 647.592V726.51L250.555 706.844L216.274 687.177V608.006H216.526ZM143.174 641.793C142.418 642.045 141.41 642.549 140.906 643.053L74.8641 604.729V525.81L143.174 565.395V641.793ZM143.174 401.759V480.678L74.8641 441.092V364.695C75.6203 364.443 76.6286 363.939 77.1327 363.434L143.174 401.759ZM73.3517 443.361L141.914 482.947L74.8641 521.776L73.6038 522.532L72.3434 521.776L5.04135 482.947L73.3517 443.361ZM3.78102 565.395L72.0914 525.81V604.729L3.78102 644.566V565.395ZM3.78102 648.852L72.0914 688.438V767.356L3.78102 727.771V648.852ZM73.3517 686.168L5.04135 646.583L36.0457 628.681L73.3517 607.25L139.393 645.575C139.393 646.079 139.141 646.331 139.141 646.835C139.141 647.34 139.141 647.592 139.393 648.096L73.3517 686.168ZM145.695 651.374C146.451 651.122 147.46 650.617 147.964 650.113L214.006 688.438V767.356L145.695 727.771V651.374ZM145.695 811.228L214.006 771.643V850.561L145.695 890.147V811.228ZM74.8641 938.052C76.8807 937.548 78.6451 935.531 78.6451 933.262C78.6451 932.758 78.6451 932.505 78.3931 932.001L143.174 894.433V973.351L74.8641 1012.94V938.052ZM143.174 1055.55L74.8641 1095.13V1016.21L143.174 976.629V1055.55ZM72.0914 1178.34L3.78102 1217.92V1139L72.0914 1099.42V1178.34ZM74.8641 1097.91L143.174 1058.32V1137.24L74.8641 1176.83V1097.91ZM216.526 1015.96L282.568 977.638C283.072 978.142 284.08 978.646 284.837 978.898V1055.3L216.526 1094.88V1015.96ZM214.006 1099.42V1177.08L145.695 1137.49V1058.57L214.006 1098.16V1099.42ZM284.837 890.147L216.526 850.561V771.643L250.807 791.309L285.089 810.976V890.147H284.837ZM287.357 808.202V729.284L326.428 706.592L355.668 689.698V764.583C353.651 765.087 351.887 767.104 351.887 769.373C351.887 769.878 351.887 770.13 352.139 770.634L287.357 808.202ZM358.44 850.813V774.416C359.197 774.164 360.205 773.66 360.709 773.155L426.751 811.48V887.877C425.994 888.129 424.986 888.634 424.482 889.138L358.44 850.813ZM358.44 934.018L424.482 895.694C424.986 896.198 425.994 896.702 426.751 896.954V973.351L425.49 974.108L358.44 1012.94V934.018ZM358.44 1097.91L426.751 1058.32V1137.24L358.44 1176.83V1097.91ZM426.751 1055.55L358.44 1095.13V1016.21L426.751 976.629V1055.55ZM287.357 1217.92V1142.03C289.374 1141.53 291.138 1139.51 291.138 1137.24C291.138 1136.99 291.138 1136.99 291.138 1136.74L355.92 1099.42V1178.34L287.357 1217.92ZM426.751 1299.87L358.44 1260.28V1181.36L426.751 1220.95V1299.87ZM497.834 1174.3C497.078 1174.56 496.069 1175.06 495.565 1175.56L429.523 1137.24V1058.32L497.834 1097.91V1174.3ZM429.271 1055.55V976.629L497.582 1016.21V1095.13L429.271 1055.55ZM499.094 1013.69L430.784 974.108L499.094 934.522L500.354 935.279L567.404 974.108L499.094 1013.69ZM640.756 934.775L709.067 974.36L642.017 1013.19L640.756 1013.95L639.496 1013.19L572.446 974.36L640.756 934.775ZM571.185 1057.06L639.496 1017.48V1096.39L571.185 1135.98V1057.06ZM568.665 1301.13L500.354 1340.71V1261.8L568.665 1222.21V1301.13ZM571.185 1219.44V1140.52L639.496 1180.1V1259.02L571.185 1219.44ZM643.277 1261.04L708.058 1223.47C708.562 1223.97 709.571 1224.48 710.327 1224.73V1299.87L643.277 1261.04ZM713.1 1215.4V1140.52L781.41 1180.1V1259.02L716.629 1221.45C716.629 1220.95 716.881 1220.7 716.881 1220.19C716.629 1217.67 715.116 1215.91 713.1 1215.4ZM783.931 1340.71V1261.8L852.241 1222.21V1301.13L783.931 1340.71ZM923.324 1260.28L854.762 1299.87V1220.95L923.072 1181.36V1260.28H923.324ZM925.845 1178.34V1099.42L994.155 1139V1215.4C993.399 1215.65 992.643 1216.16 991.887 1216.66L925.845 1178.34ZM1920 702.305L1849.17 661.459L1918.24 621.622L1918.99 621.369V539.425L1920.25 538.669L1918.99 537.912V455.968L1849.42 415.879L1918.49 376.041L1919.24 375.789V291.071L1846.4 333.178L1845.64 333.43V413.862V497.319L1779.6 535.643C1779.09 535.139 1778.09 534.635 1777.33 534.383V374.528L1706.5 333.682V250.982L1638.44 212.153C1638.44 211.649 1638.69 211.396 1638.69 210.892C1638.69 210.388 1638.69 210.136 1638.44 209.631L1705.24 171.055L1705.99 170.802V90.1189L1774.3 129.704V295.106L1842.87 255.52C1843.88 256.529 1844.88 257.033 1846.4 257.033C1849.17 257.033 1851.44 254.764 1851.44 251.99C1851.44 249.721 1849.93 247.704 1847.66 247.2V88.8582L1918.24 48.0122L1918.99 47.7601V-37.2098L1847.66 3.88841L1775.57 45.4909L1703.47 3.88841V87.3454L1633.15 127.939L1632.39 128.191V206.101C1630.37 206.606 1628.61 208.623 1628.61 210.892C1628.61 213.161 1630.12 215.178 1632.39 215.683V293.593L1703.22 334.439V414.87L1634.91 454.455V374.024L1564.08 333.178V331.665L1562.82 332.422L1561.56 331.665V333.178L1491.23 373.772L1490.48 374.024V458.742L1559.04 419.156C1560.05 420.165 1561.06 420.669 1562.57 420.669C1564.08 420.669 1565.09 420.165 1566.1 419.156L1632.14 457.229V622.63L1704.23 581.028L1773.8 621.369L1843.37 661.711L1775.06 701.297L1773.8 700.54V702.053L1772.54 702.809L1773.8 703.566V785.51L1844.63 826.356V902.753C1842.62 903.258 1840.85 905.275 1840.85 907.544C1840.85 910.317 1843.12 912.587 1845.89 912.587C1848.66 912.587 1850.93 910.317 1850.93 907.544C1850.93 907.04 1850.93 906.787 1850.68 906.283L1917.48 867.706L1918.24 867.454V782.737L1847.4 823.583V744.664L1920 702.305ZM1847.91 334.439L1916.22 294.853V373.772L1847.91 413.357V334.439ZM1916.22 619.605L1847.91 659.19V580.271L1916.22 540.686V619.605ZM1916.22 536.148L1847.91 496.562V417.644L1916.22 457.229V536.148ZM1846.65 498.831L1914.96 538.417L1883.95 556.318L1846.65 577.75L1780.61 539.425C1780.61 538.921 1780.86 538.669 1780.86 538.165C1780.86 537.66 1780.86 537.408 1780.61 536.904L1846.65 498.831ZM1774.3 457.229V533.626C1773.55 533.878 1772.54 534.383 1772.04 534.887L1740.02 516.481L1705.74 496.814V417.896L1740.02 437.562L1774.3 457.229ZM1776.83 129.704L1845.14 90.1189V169.038L1776.83 208.623V129.704ZM1776.83 290.567V211.648L1845.14 172.063V246.948C1843.12 247.452 1841.35 249.469 1841.35 251.738C1841.35 252.242 1841.35 252.495 1841.61 252.999L1776.83 290.567ZM1847.91 6.6619L1916.22 -32.9234V45.9951L1847.91 85.5805V6.6619ZM1845.14 87.0933L1776.83 126.679V47.7601L1845.14 8.17471V87.0933ZM1705.99 8.17471L1774.3 47.7601V126.679L1705.99 87.0933V85.5805V8.17471ZM1703.47 90.1189V169.038L1637.43 207.362C1636.93 206.858 1635.92 206.354 1635.16 206.101V129.704L1703.47 90.1189ZM1634.91 292.08V215.683C1635.67 215.431 1636.42 214.926 1637.18 214.422L1703.22 252.747V331.665L1634.91 292.08ZM1774.3 375.285V454.203L1740.02 434.537L1705.74 414.87V335.952L1774.3 375.285ZM1493.25 454.455V375.537L1561.56 335.952V410.836C1559.54 411.34 1557.78 413.357 1557.78 415.627C1557.78 416.131 1557.78 416.383 1558.03 416.887L1493.25 454.455ZM1564.08 410.836V335.952L1632.39 375.537V454.455L1567.61 416.887C1567.61 416.383 1567.86 416.131 1567.86 415.627C1567.86 413.357 1566.35 411.34 1564.08 410.836ZM1634.91 457.229L1703.22 417.644V496.562L1634.91 536.148V457.229ZM1634.91 539.173L1703.22 499.588V578.759L1634.91 618.344V539.173ZM1705.99 578.759V499.84L1740.28 519.507L1771.03 537.156C1771.03 537.66 1770.78 537.912 1770.78 538.417C1770.78 540.686 1772.29 542.703 1774.56 543.207V618.092L1705.99 578.759ZM1776.83 543.207C1777.58 542.955 1778.59 542.451 1779.09 541.947L1845.14 580.271V659.19L1776.83 619.605V543.207ZM1845.39 663.476L1846.65 662.72L1847.91 663.476L1914.96 702.305L1846.65 741.891L1778.09 702.305L1845.39 663.476ZM1776.83 704.574L1845.14 744.16V823.078L1776.83 783.493V704.574ZM1916.22 786.266V865.185L1850.18 903.51C1849.67 903.005 1848.66 902.501 1847.91 902.249V825.852L1916.22 786.266ZM1496.78 292.584C1496.78 292.08 1496.78 291.828 1496.53 291.323L1563.32 252.747L1564.08 252.495V88.8582L1629.87 50.7857C1630.88 52.0464 1632.14 52.8028 1633.9 52.8028C1636.68 52.8028 1638.94 50.5336 1638.94 47.7601C1638.94 45.4909 1637.43 43.4738 1635.16 42.9695V-37.2098L1564.33 3.88841V-76.543L1490.98 -118.902V-34.1841L1560.3 5.90551L1491.74 45.4909L1425.7 7.16619C1425.7 6.66191 1425.95 6.40978 1425.95 5.90551C1425.95 3.13201 1423.68 0.862776 1420.91 0.862776C1418.13 0.862776 1415.86 3.13201 1415.86 5.90551C1415.86 8.17473 1417.38 10.1918 1419.65 10.6961V85.5805V169.038L1350.07 209.379L1281.76 169.794L1350.83 129.956L1351.59 129.704V47.7601L1352.85 47.0037L1351.59 46.2473V-34.1841L1421.66 -74.778L1422.42 -75.0302V-160L1349.57 -117.893L1348.81 -117.641V-37.2098L1280.5 -76.543V-78.0558L1279.24 -77.2994L1207.15 -118.902V-39.479C1206.4 -39.2269 1205.39 -38.7226 1204.88 -38.2183L1138.84 -76.2908V-160L1068.01 -119.154L995.163 -77.0472L994.407 -76.7951V3.88841L926.097 -35.6969V-37.2098L924.836 -36.4534L923.576 -37.2098V-35.6969L854.005 4.64483L781.41 -37.2098V46.2473L713.1 85.8326V5.14909L639.748 -37.2098L568.917 -78.0558V5.40122L502.875 43.7259C501.867 42.7174 500.859 42.2131 499.346 42.2131C496.573 42.2131 494.305 44.4823 494.305 47.2558C494.305 50.0293 496.573 52.2985 499.346 52.2985C500.607 52.2985 501.867 51.7942 502.875 50.7857L568.917 89.1104V172.567L641.764 130.461L642.521 130.209V49.0208L710.831 88.6061V172.063L779.393 132.478C779.898 132.982 780.906 133.486 781.662 133.738V211.648L855.014 254.007V172.063L925.845 212.909V128.191L856.274 87.8497L924.584 48.2643L996.676 89.8668V6.6619L1064.99 -32.9234V127.939L994.659 168.533L993.903 168.785V253.503L1062.47 213.918C1063.47 214.926 1064.48 215.431 1065.99 215.431C1068.77 215.431 1071.04 213.161 1071.04 210.388C1071.04 208.119 1069.52 206.101 1067.25 205.597V129.2L1137.58 88.6061L1138.34 88.354V8.17471L1206.65 47.7601V124.157C1204.63 124.662 1202.87 126.679 1202.87 128.948C1202.87 129.452 1202.87 129.704 1203.12 130.209L1136.32 168.785L1135.57 169.038V253.755L1207.66 212.153L1278.49 252.999L1349.32 212.153L1420.15 252.999L1489.72 212.657V287.541C1487.7 288.046 1485.94 290.063 1485.94 292.332C1485.94 295.105 1488.21 297.375 1490.98 297.375C1494.76 297.627 1496.78 295.358 1496.78 292.584ZM1561.56 250.982L1495.52 289.306C1495.01 288.802 1494.01 288.298 1493.25 288.046V211.648L1494.51 210.892L1561.56 172.063V250.982ZM1422.17 90.1189L1490.48 129.704V208.623L1422.17 169.038V90.1189ZM1493.25 129.704L1561.56 90.1189V169.038L1493.25 208.623V129.704ZM1561.56 87.0933L1493.25 126.679V47.7601L1561.56 8.17471V87.0933ZM1632.64 -32.6713V43.2216C1630.63 43.7259 1628.86 45.743 1628.86 48.0122C1628.86 48.2643 1628.86 48.2643 1628.86 48.5165L1564.08 85.8326V6.6619L1632.64 -32.6713ZM1493.25 -114.616L1561.56 -75.0302V3.88841L1493.25 -35.6969V-114.616ZM1422.17 10.6961C1422.92 10.4439 1423.93 9.93967 1424.43 9.43539L1490.48 47.7601V126.679L1422.17 87.0933V10.6961ZM1279.24 86.589L1210.93 47.0037L1241.94 29.102L1279.24 7.67045L1347.55 47.2558L1316.55 65.1575L1279.24 86.589ZM1209.42 -30.15C1210.18 -30.4021 1211.19 -30.9064 1211.69 -31.4106L1276.47 6.15764L1209.42 44.9866V-30.15ZM1277.98 3.88841L1213.2 -33.6799C1213.2 -34.1841 1213.45 -34.4363 1213.45 -34.9405C1213.45 -35.4448 1213.45 -35.6969 1213.2 -36.2012L1277.98 -73.7695V3.88841ZM1277.98 88.6061V167.777L1213.2 130.209C1213.2 129.704 1213.45 129.452 1213.45 128.948C1213.45 126.679 1211.94 124.662 1209.67 124.157V49.2729L1277.98 88.6061ZM1209.42 133.738C1210.18 133.486 1211.19 132.982 1211.69 132.478L1276.47 170.046L1209.42 208.875V133.738ZM1348.81 128.191L1280.5 167.777V88.6061L1348.81 49.2729V128.191ZM1351.34 -116.128L1419.65 -155.714V-76.7951L1351.34 -37.2098V-116.128ZM1348.81 -34.1841V44.7344L1280.5 5.40122V-73.7695L1348.81 -34.1841ZM1276.72 -75.7866L1211.94 -38.2183C1211.44 -38.7226 1210.43 -39.2269 1209.67 -39.479V-114.616L1276.72 -75.7866ZM1136.07 -155.714V-76.7951L1067.76 -37.2098V-116.128L1136.07 -155.714ZM923.324 -32.6713V46.2473L855.014 85.8326V6.6619L923.324 -32.6713ZM783.931 -32.6713L852.241 6.91403V85.8326L817.96 66.166L783.931 46.2473V-32.6713ZM852.493 167.525L818.212 147.858L787.46 130.209C787.46 129.704 787.712 129.452 787.712 128.948C787.712 126.679 786.199 124.662 783.931 124.157V49.2729L818.212 68.9395L852.493 88.6061V167.525ZM710.579 85.8326L642.269 46.2473V-32.6713L710.579 6.91403V85.8326ZM571.185 -73.7695L639.496 -34.1841V44.7344L571.185 5.14909V-73.7695ZM503.883 45.743L569.925 7.41832L638.235 47.0037L607.231 64.9053L569.925 86.3369L503.883 48.0122C503.883 47.5079 504.135 47.2558 504.135 46.7515C504.135 46.2473 503.883 45.9951 503.883 45.743ZM639.496 128.191L571.185 167.777V88.6061L639.496 49.2729V128.191ZM713.1 167.525V88.6061L781.41 49.2729V124.157C779.393 124.662 777.629 126.679 777.629 128.948C777.629 129.452 777.629 129.704 777.881 130.209L713.1 167.525ZM852.493 249.469L783.931 210.136V133.738C784.687 133.486 785.695 132.982 786.199 132.478L818.212 150.884L852.493 170.55V249.469ZM923.324 208.623L855.014 169.038V90.1189L923.324 129.704V208.623ZM994.155 85.8326L925.845 46.2473V-32.6713L994.155 6.91403V85.8326ZM996.676 3.88841V-75.2823L1065.24 -114.616V-35.6969L996.676 3.88841ZM1136.07 -73.7695V5.14909L1067.76 44.7344V-34.1841L1136.07 -73.7695ZM996.676 249.469V170.55L1064.99 130.965V205.849C1062.97 206.354 1061.21 208.371 1061.21 210.64C1061.21 211.144 1061.21 211.396 1061.46 211.901L996.676 249.469ZM1136.07 87.0933L1067.76 126.679V47.7601L1136.07 8.17471V87.0933ZM1138.59 -73.7695L1203.37 -36.2012C1203.37 -35.6969 1203.12 -35.4448 1203.12 -34.9405C1203.12 -32.6713 1204.63 -30.6542 1206.9 -30.15V44.7344L1138.59 5.14909V-73.7695ZM1138.59 170.55L1204.63 132.226C1205.14 132.73 1206.14 133.234 1206.9 133.486V209.884L1138.59 249.469V170.55ZM1279.24 250.225L1210.93 210.64L1277.98 171.811L1279.24 171.055L1280.5 171.811L1347.55 210.64L1279.24 250.225ZM1352.6 210.892L1420.91 171.307L1489.22 210.892L1420.91 250.477L1352.6 210.892Z" fill="url(#paint0_linear_3827_14)"/>
</g>
<defs>
<linearGradient id="paint0_linear_3827_14" x1="339.505" y1="1556.81" x2="1629.45" y2="-304.204" gradientUnits="userSpaceOnUse">
<stop stop-color="#D2D2D1"/>
<stop offset="0.1074" stop-color="#DADADA"/>
<stop offset="0.3674" stop-color="#EAEAEA"/>
<stop offset="0.5713" stop-color="#F0F0F0"/>
<stop offset="0.7773" stop-color="#F4F4F4"/>
<stop offset="0.976" stop-color="white"/>
</linearGradient>
<clipPath id="clip0_3827_14">
<rect width="1920" height="671" fill="white"/>
</clipPath>
</defs>
</svg>
