<svg width="1920" height="543" viewBox="0 0 1920 543" fill="none" xmlns="http://www.w3.org/2000/svg">
<g opacity="0.1" clip-path="url(#clip0_3827_16)">
<mask id="mask0_3827_16" style="mask-type:luminance" maskUnits="userSpaceOnUse" x="1" y="-51" width="2106" height="1869">
<path d="M1.92651 1817.83L2106.33 1817.83L2106.33 -50.5773L1.92668 -50.5775L1.92651 1817.83Z" fill="white"/>
</mask>
<g mask="url(#mask0_3827_16)">
<path d="M1895.36 -227.034L2195.61 88.2604L1726.37 195.305L1895.36 -227.034ZM2186.58 85.0166L1896.42 -219.249L1733.28 188.817L2186.58 85.0166Z" fill="#00D563"/>
<path d="M-193.638 280.29L49.75 622.832L-302.046 439.235L-193.638 280.29ZM35.4021 609.857L-193.638 287.427L-295.669 436.64L35.4021 609.857Z" fill="#00D563"/>
<path d="M-301.506 434.041L44.9766 615.043L-173.966 1168.43L-301.506 434.041ZM39.6625 617.638L-296.192 441.826L-172.903 1153.51L39.6625 617.638Z" fill="#00D563"/>
<path d="M836.781 -122.584L42.3167 619.59L-196.82 282.887L-194.163 281.589L836.781 -122.584ZM42.848 613.102L816.056 -109.609L-189.911 284.833L42.848 613.102Z" fill="#00D563"/>
<path d="M828.805 -121.284L760.252 910.883L38.5913 616.997L41.7797 614.403L828.805 -121.284ZM756.001 904.395L823.491 -110.255L46.5626 615.7L756.001 904.395Z" fill="#00D563"/>
<path d="M824.566 -119.991L1064.77 48.0358L1064.23 49.982L754.951 921.906L824.566 -119.991ZM1059.98 49.982L828.286 -112.206L761.328 892.712L1059.98 49.982Z" fill="#00D563"/>
<path d="M1481.38 -414.523L1733.27 195.305L1057.85 50.6327L1481.38 -414.523ZM1726.37 188.817L1480.32 -406.738L1066.88 48.0378L1726.37 188.817Z" fill="#00D563"/>
<path d="M1476.61 -415.173L1898.55 -224.439L1730.1 197.25L1728.5 192.709L1476.61 -415.173ZM1893.24 -221.845L1485.11 -406.739L1730.1 186.221L1893.24 -221.845Z" fill="#00D563"/>
<path d="M2193.48 83.7213L2192.42 87.6137L1969.23 1001.71L1726.37 190.117L1728.5 189.468L2193.48 83.7213ZM1969.23 986.137L2187.64 90.2089L1732.22 194.009L1969.23 986.137Z" fill="#00D563"/>
<path d="M-285.568 -615.64L-192.039 278.342L435.562 -581.256L438.75 -578.012L-194.696 289.371L-195.227 284.181L-289.288 -614.991L-285.568 -615.64Z" fill="#00D563"/>
<path d="M435.559 -581.248L438.747 -578.004L-187.259 278.999L825.617 -118.038L826.68 -113.497L-200.013 288.73L435.559 -581.248Z" fill="#00D563"/>
<path d="M1062.11 42.8503L1261.92 602.076L753.89 912.18L756.015 906.341L1062.11 42.8503ZM1257.14 600.129L1062.64 55.1766L762.392 901.8L1257.14 600.129Z" fill="#00D563"/>
<path d="M1888.97 -227.04L2081.35 -186.169L2081.88 -184.871L2197.2 96.0391L1888.97 -227.04ZM2078.69 -181.627L1902.26 -219.255L2184.44 77.2253L2078.69 -181.627Z" fill="#00D563"/>
<path d="M1031.29 -367.811L1064.77 53.8789L825.098 -114.148L827.223 -118.041L1059.98 44.7964L1027.04 -367.162L1031.29 -367.811Z" fill="#00D563"/>
<path d="M1479.8 -412.571L1482.45 -408.679L1060.51 54.5312L1060.51 49.3411L1027.03 -367.158L1031.28 -367.807L1063.7 44.1511L1479.8 -412.571Z" fill="#00D563"/>
<path d="M1056.79 40.2484L1443.13 443.773L1258.2 605.312L1257.14 602.717L1056.79 40.2484ZM1437.29 443.124L1067.95 57.7648L1260.86 597.527L1437.29 443.124Z" fill="#00D563"/>
<path d="M1055.2 45.4373L1734.34 190.758L1439.94 447.016L1438.88 445.718L1055.2 45.4373ZM1724.78 193.353L1069.01 53.2224L1440.47 440.528L1724.78 193.353Z" fill="#00D563"/>
<path d="M1442.06 438.591L1439.94 997.168L1256.6 600.78L1442.06 438.591ZM1436.75 979.003L1438.34 448.323L1262.44 602.077L1436.75 979.003Z" fill="#00D563"/>
<path d="M1438.34 438.592L1441.53 441.836L1970.82 991.979L1968.16 995.871L1442.06 448.972L1440.47 988.086L1436.22 988.086L1438.34 438.592Z" fill="#00D563"/>
<path d="M1730.61 188.171L1974 1001.71L1437.27 443.779L1439.4 441.833L1730.61 188.171ZM1964.97 986.137L1729.02 195.956L1443.65 443.779L1964.97 986.137Z" fill="#00D563"/>
<path d="M1895.36 -227.034L2195.61 88.2604L1726.37 195.305L1895.36 -227.034ZM2186.58 85.0166L1896.42 -219.249L1733.28 188.817L2186.58 85.0166Z" fill="#00D563"/>
<path d="M-193.638 280.29L49.75 622.832L-302.046 439.235L-193.638 280.29ZM35.4021 609.857L-193.638 287.427L-295.669 436.64L35.4021 609.857Z" fill="#00D563"/>
<path d="M-301.506 434.041L44.9766 615.043L-173.966 1168.43L-301.506 434.041ZM39.6625 617.638L-296.192 441.826L-172.903 1153.51L39.6625 617.638Z" fill="#00D563"/>
<path d="M836.781 -122.584L42.3167 619.59L-196.82 282.887L-194.163 281.589L836.781 -122.584ZM42.848 613.102L816.056 -109.609L-189.911 284.833L42.848 613.102Z" fill="#00D563"/>
<path d="M828.805 -121.284L760.252 910.883L38.5913 616.997L41.7797 614.403L828.805 -121.284ZM756.001 904.395L823.491 -110.255L46.5626 615.7L756.001 904.395Z" fill="#00D563"/>
<path d="M824.566 -119.991L1064.77 48.0358L1064.23 49.982L754.951 921.906L824.566 -119.991ZM1059.98 49.982L828.286 -112.206L761.328 892.712L1059.98 49.982Z" fill="#00D563"/>
<path d="M1481.38 -414.523L1733.27 195.305L1057.85 50.6327L1481.38 -414.523ZM1726.37 188.817L1480.32 -406.738L1066.88 48.0378L1726.37 188.817Z" fill="#00D563"/>
<path d="M1476.61 -415.173L1898.55 -224.439L1730.1 197.25L1728.5 192.709L1476.61 -415.173ZM1893.24 -221.845L1485.11 -406.739L1730.1 186.221L1893.24 -221.845Z" fill="#00D563"/>
<path d="M2193.48 83.7213L2192.42 87.6137L1969.23 1001.71L1726.37 190.117L1728.5 189.468L2193.48 83.7213ZM1969.23 986.137L2187.64 90.2089L1732.22 194.009L1969.23 986.137Z" fill="#00D563"/>
<path d="M-285.568 -615.64L-192.039 278.342L435.562 -581.256L438.75 -578.012L-194.696 289.371L-195.227 284.181L-289.288 -614.991L-285.568 -615.64Z" fill="#00D563"/>
<path d="M435.559 -581.248L438.747 -578.004L-187.259 278.999L825.617 -118.038L826.68 -113.497L-200.013 288.73L435.559 -581.248Z" fill="#00D563"/>
<path d="M1062.11 42.8503L1261.92 602.076L753.89 912.18L756.015 906.341L1062.11 42.8503ZM1257.14 600.129L1062.64 55.1766L762.392 901.8L1257.14 600.129Z" fill="#00D563"/>
<path d="M1888.97 -227.04L2081.35 -186.169L2081.88 -184.871L2197.2 96.0391L1888.97 -227.04ZM2078.69 -181.627L1902.26 -219.255L2184.44 77.2253L2078.69 -181.627Z" fill="#00D563"/>
<path d="M1031.29 -367.811L1064.77 53.8789L825.098 -114.148L827.223 -118.041L1059.98 44.7964L1027.04 -367.162L1031.29 -367.811Z" fill="#00D563"/>
<path d="M1479.8 -412.571L1482.45 -408.679L1060.51 54.5312L1060.51 49.3411L1027.03 -367.158L1031.28 -367.807L1063.7 44.1511L1479.8 -412.571Z" fill="#00D563"/>
<path d="M1056.79 40.2484L1443.13 443.773L1258.2 605.312L1257.14 602.717L1056.79 40.2484ZM1437.29 443.124L1067.95 57.7648L1260.86 597.527L1437.29 443.124Z" fill="#00D563"/>
<path d="M1055.2 45.4373L1734.34 190.758L1439.94 447.016L1438.88 445.718L1055.2 45.4373ZM1724.78 193.353L1069.01 53.2224L1440.47 440.528L1724.78 193.353Z" fill="#00D563"/>
<path d="M1442.06 438.591L1439.94 997.168L1256.6 600.78L1442.06 438.591ZM1436.75 979.003L1438.34 448.323L1262.44 602.077L1436.75 979.003Z" fill="#00D563"/>
<path d="M1438.34 438.592L1441.53 441.836L1970.82 991.979L1968.16 995.871L1442.06 448.972L1440.47 988.086L1436.22 988.086L1438.34 438.592Z" fill="#00D563"/>
<path d="M1730.61 188.171L1974 1001.71L1437.27 443.779L1439.4 441.833L1730.61 188.171ZM1964.97 986.137L1729.02 195.956L1443.65 443.779L1964.97 986.137Z" fill="#00D563"/>
</g>
<mask id="mask1_3827_16" style="mask-type:luminance" maskUnits="userSpaceOnUse" x="1" y="-51" width="2106" height="1869">
<path d="M1.92651 1817.83L2106.33 1817.83L2106.33 -50.5773L1.92668 -50.5775L1.92651 1817.83Z" fill="white"/>
</mask>
<g mask="url(#mask1_3827_16)">
<path d="M288.359 382.138L143.283 804.477L-114.453 489.182L288.359 382.138ZM141.689 796.043L281.451 388.626L-106.481 491.777L141.689 796.043Z" fill="white"/>
<path d="M1918.22 -583.859L2025.03 134.311L2422 -449.567L2425.19 -446.323L2022.38 145.34L1914.5 -582.561L1918.22 -583.859Z" fill="white"/>
<path d="M1724.78 -45.3897L2026.63 138.856L1933.63 297.801L1724.78 -45.3897ZM2020.78 140.803L1738.07 -31.7659L1933.63 290.016L2020.78 140.803Z" fill="white"/>
<path d="M1917.15 -591.643L2026.62 144.043L1729.03 -37.608L1917.15 -591.643ZM2021.31 135.609L1915.56 -574.127L1733.82 -39.5541L2021.31 135.609Z" fill="white"/>
<path d="M1731.68 -42.1503L1732.74 -40.204L1936.8 294.553L1050.41 700.023L1731.68 -42.1503ZM1930.43 292.606L1731.15 -35.0141L1069 687.048L1930.43 292.606Z" fill="white"/>
<path d="M1116.3 -333.436L1735.4 -39.551L1732.74 -36.956L1057.31 699.379L1116.3 -333.436ZM1727.43 -37.6048L1119.49 -326.3L1061.56 687.701L1727.43 -37.6048Z" fill="white"/>
<path d="M1121.09 -346.415L1061.58 698.078L854.855 529.402L855.387 527.456L1121.09 -346.415ZM1057.86 688.996L1115.25 -313.328L859.638 527.456L1057.86 688.996Z" fill="white"/>
<path d="M281.461 382.136L861.234 526.808L858.577 530.052L497.747 992.613L281.461 382.136ZM853.263 530.052L288.37 389.273L498.81 984.179L853.263 530.052Z" fill="white"/>
<path d="M284.644 379.537L501.992 993.258L140.099 801.876L140.63 799.929L284.644 379.537ZM494.552 983.526L285.175 391.864L145.413 799.281L494.552 983.526Z" fill="white"/>
<path d="M78.9902 -424.912L81.116 -416.478L287.305 387.976L285.179 388.624L-113.382 494.371L78.9902 -424.912ZM282.522 384.083L79.5218 -407.396L-107.536 487.884L282.522 384.083Z" fill="white"/>
<path d="M-268.03 -666.245L-110.2 478.805L77.3895 -416.475L81.1095 -415.826L-110.731 502.809L-271.75 -665.596L-268.03 -666.245Z" fill="white"/>
<path d="M1935.22 287.419L1935.75 293.257L2016.52 1193.08L2012.27 1193.08L1932.03 299.745L1394.77 1158.69L1391.58 1156.1L1935.22 287.419Z" fill="white"/>
<path d="M1939.47 288.717L1394.77 1158.7L1391.58 1156.1L1927.78 299.097L1059.98 696.134L1058.92 691.593L1939.47 288.717Z" fill="white"/>
<path d="M1121.63 -335.385L856.981 535.242L685.334 -24.6319L686.928 -25.9295L1121.63 -335.385ZM856.981 521.618L1114.19 -323.707L690.648 -22.0369L856.981 521.618Z" fill="white"/>
<path d="M-116.035 480.1L149.141 804.477L-16.6607 762.956L-116.035 480.1ZM136.387 796.692L-104.344 501.509L-14.0037 759.064L136.387 796.692Z" fill="white"/>
<path d="M854.858 523.564L1060.52 691.591L1058.39 695.484L859.641 533.296L887.806 945.254L883.555 945.254L854.858 523.564Z" fill="white"/>
<path d="M858.569 522.913L887.797 945.252L883.546 945.252L855.381 533.942L499.864 990.016L496.676 986.772L858.569 522.913Z" fill="white"/>
<path d="M689.048 -27.8768L690.111 -24.6331L862.289 537.836L530.155 133.663L689.048 -27.8768ZM852.192 519.022L687.454 -19.4431L536.532 134.311L852.192 519.022Z" fill="white"/>
<path d="M533.351 131.066L534.414 132.364L863.359 532.645L280.398 387.324L533.351 131.066ZM851.137 524.211L532.82 137.554L289.432 384.729L851.137 524.211Z" fill="white"/>
<path d="M532.811 -421.027L690.641 -23.3407L531.216 138.848L532.811 -421.027ZM685.326 -24.6382L536.53 -400.266L534.936 128.468L685.326 -24.6382Z" fill="white"/>
<path d="M80.5777 -417.783L531.217 128.467L532.811 -410.647L536.531 -410.647L534.937 140.145L531.748 135.603L77.9207 -414.54L80.5777 -417.783Z" fill="white"/>
<path d="M75.2716 -424.92L536.008 134.305L283.586 389.914L75.2716 -424.92ZM530.162 133.657L83.7741 -407.404L286.243 381.48L530.162 133.657Z" fill="white"/>
<path d="M288.359 382.138L143.283 804.477L-114.453 489.182L288.359 382.138ZM141.689 796.043L281.451 388.626L-106.481 491.777L141.689 796.043Z" fill="white"/>
<path d="M1918.22 -583.859L2025.03 134.311L2422 -449.567L2425.19 -446.323L2022.38 145.34L1914.5 -582.561L1918.22 -583.859Z" fill="white"/>
<path d="M1724.78 -45.3897L2026.63 138.856L1933.63 297.801L1724.78 -45.3897ZM2020.78 140.803L1738.07 -31.7659L1933.63 290.016L2020.78 140.803Z" fill="white"/>
<path d="M1917.15 -591.643L2026.62 144.043L1729.03 -37.608L1917.15 -591.643ZM2021.31 135.609L1915.56 -574.127L1733.82 -39.5541L2021.31 135.609Z" fill="white"/>
<path d="M1731.68 -42.1503L1732.74 -40.204L1936.8 294.553L1050.41 700.023L1731.68 -42.1503ZM1930.43 292.606L1731.15 -35.0141L1069 687.048L1930.43 292.606Z" fill="white"/>
<path d="M1116.3 -333.436L1735.4 -39.551L1732.74 -36.956L1057.31 699.379L1116.3 -333.436ZM1727.43 -37.6048L1119.49 -326.3L1061.56 687.701L1727.43 -37.6048Z" fill="white"/>
<path d="M1121.09 -346.415L1061.58 698.078L854.855 529.402L855.387 527.456L1121.09 -346.415ZM1057.86 688.996L1115.25 -313.328L859.638 527.456L1057.86 688.996Z" fill="white"/>
<path d="M281.461 382.136L861.234 526.808L858.577 530.052L497.747 992.613L281.461 382.136ZM853.263 530.052L288.37 389.273L498.81 984.179L853.263 530.052Z" fill="white"/>
<path d="M284.644 379.537L501.992 993.258L140.099 801.876L140.63 799.929L284.644 379.537ZM494.552 983.526L285.175 391.864L145.413 799.281L494.552 983.526Z" fill="white"/>
<path d="M78.9902 -424.912L81.116 -416.478L287.305 387.976L285.179 388.624L-113.382 494.371L78.9902 -424.912ZM282.522 384.083L79.5218 -407.396L-107.536 487.884L282.522 384.083Z" fill="white"/>
<path d="M-268.03 -666.245L-110.2 478.805L77.3895 -416.475L81.1095 -415.826L-110.731 502.809L-271.75 -665.596L-268.03 -666.245Z" fill="white"/>
<path d="M1935.22 287.419L1935.75 293.257L2016.52 1193.08L2012.27 1193.08L1932.03 299.745L1394.77 1158.69L1391.58 1156.1L1935.22 287.419Z" fill="white"/>
<path d="M1939.47 288.717L1394.77 1158.7L1391.58 1156.1L1927.78 299.097L1059.98 696.134L1058.92 691.593L1939.47 288.717Z" fill="white"/>
<path d="M1121.63 -335.385L856.981 535.242L685.334 -24.6319L686.928 -25.9295L1121.63 -335.385ZM856.981 521.618L1114.19 -323.707L690.648 -22.0369L856.981 521.618Z" fill="white"/>
<path d="M-116.035 480.1L149.141 804.477L-16.6607 762.956L-116.035 480.1ZM136.387 796.692L-104.344 501.509L-14.0037 759.064L136.387 796.692Z" fill="white"/>
<path d="M854.858 523.564L1060.52 691.591L1058.39 695.484L859.641 533.296L887.806 945.254L883.555 945.254L854.858 523.564Z" fill="white"/>
<path d="M858.569 522.913L887.797 945.252L883.546 945.252L855.381 533.942L499.864 990.016L496.676 986.772L858.569 522.913Z" fill="white"/>
<path d="M689.048 -27.8768L690.111 -24.6331L862.289 537.836L530.155 133.663L689.048 -27.8768ZM852.192 519.022L687.454 -19.4431L536.532 134.311L852.192 519.022Z" fill="white"/>
<path d="M533.351 131.066L534.414 132.364L863.359 532.645L280.398 387.324L533.351 131.066ZM851.137 524.211L532.82 137.554L289.432 384.729L851.137 524.211Z" fill="white"/>
<path d="M532.811 -421.027L690.641 -23.3407L531.216 138.848L532.811 -421.027ZM685.326 -24.6382L536.53 -400.266L534.936 128.468L685.326 -24.6382Z" fill="white"/>
<path d="M80.5777 -417.783L531.217 128.467L532.811 -410.647L536.531 -410.647L534.937 140.145L531.748 135.603L77.9207 -414.54L80.5777 -417.783Z" fill="white"/>
<path d="M75.2716 -424.92L536.008 134.305L283.586 389.914L75.2716 -424.92ZM530.162 133.657L83.7741 -407.404L286.243 381.48L530.162 133.657Z" fill="white"/>
</g>
</g>
<defs>
<clipPath id="clip0_3827_16">
<rect width="1920" height="543" fill="white" transform="translate(1920 543) rotate(-180)"/>
</clipPath>
</defs>
</svg>
