<svg width="1914" height="1523" viewBox="0 0 1914 1523" fill="none" xmlns="http://www.w3.org/2000/svg">
<g opacity="0.04" clip-path="url(#clip0_3831_543)">
<path d="M1610.61 738.295L1496.75 919.25L1269.76 1009.51H1269.4L1155.54 1190.47L928.536 1280.73H928.176L814.316 1461.69L661.542 1522.57H666.226L815.757 1462.97H816.117L929.977 1282.01L1156.98 1191.75H1157.34L1271.2 1010.79L1498.2 920.527H1498.56L1612.42 739.573L1839.42 649.308H1839.78L1914.72 530.091V526.259L1837.61 648.031L1610.61 738.295ZM1582.15 715.729L1468.29 896.684L1241.29 986.948H1240.93L1127.07 1167.9L900.071 1258.17H899.711L785.49 1439.55L575.786 1523H580.47L786.571 1440.83H786.932L900.792 1259.87L1127.79 1169.61H1128.15L1242.01 988.651L1469.01 898.387H1469.37L1583.23 717.432L1810.23 627.168H1810.59L1914 462.818V458.986L1809.15 625.89L1582.15 715.729ZM1695.65 263.129L1581.79 444.084L1354.79 534.349H1354.43L1240.57 715.303L1013.57 805.568H1013.21L899.35 986.522L672.351 1076.79H671.991L558.131 1257.74L331.132 1348.01H330.771L221.595 1521.72H223.757L332.213 1348.86L559.212 1258.59H559.572L673.432 1077.64L900.431 987.374H900.792L1014.65 806.419L1241.65 716.155H1242.01L1355.87 535.2L1582.87 444.936H1583.23L1697.09 264.407L1914 177.974V176.271L1695.65 263.129ZM1724.11 285.696L1610.25 466.65L1383.26 556.915H1382.89L1269.03 737.869L1042.04 828.134H1041.68L927.815 1009.09L700.816 1099.35H700.456L586.596 1280.31L359.597 1370.57H359.236L264.113 1521.72H266.275L360.677 1371.85L587.677 1281.59H588.037L701.897 1100.63L928.896 1010.37H929.257L1043.12 829.411L1270.12 739.147H1270.48L1384.34 558.192L1611.34 467.928H1611.7L1725.56 286.973L1914 212.036V210.333L1724.11 285.696ZM1866.08 941.816L1752.22 1122.77L1525.22 1213.04H1524.86L1411 1393.99L1184 1484.25H1183.64L1159.5 1522.57H1161.66L1184.72 1485.53L1411.72 1395.27H1412.08L1525.94 1214.31L1752.94 1124.05H1753.3L1867.16 943.093L1913.64 924.785V923.082L1866.08 941.816ZM1894.54 964.808L1780.68 1145.76L1553.68 1236.03H1553.32L1439.46 1416.98L1212.47 1507.25H1212.1L1202.38 1522.57H1204.54L1213.55 1508.1L1440.55 1417.83H1440.91L1554.77 1236.88L1781.76 1146.61H1782.13L1895.98 965.659L1914 958.421V956.718L1894.54 964.808ZM1667.54 783.427L1553.68 964.382L1326.69 1054.65H1326.33L1212.47 1235.6L985.466 1325.87H985.106L871.246 1506.82L832.331 1522.15H837.016L872.687 1508.1H873.047L986.907 1327.14L1213.91 1236.88H1214.27L1328.13 1055.92L1555.13 965.659H1555.49L1669.35 784.705L1896.35 694.44H1896.71L1914.72 665.913V662.081L1895.26 693.163L1667.54 783.427ZM1639.08 760.861L1525.22 941.816L1298.22 1032.08H1297.86L1183.64 1213.46L956.641 1303.73H956.28L842.42 1484.68L746.576 1523H751.26L843.862 1486.38H844.222L958.082 1305.43L1185.08 1215.16H1185.44L1299.3 1034.21L1526.3 943.945H1526.66L1640.52 762.99L1867.52 672.726H1867.88L1914.36 599.066V595.235L1866.44 671.448L1639.08 760.861ZM1837.61 376.386L1723.75 557.34L1496.75 647.605H1496.39L1382.53 828.56L1155.54 918.824H1155.17L1041.31 1099.78L814.316 1190.04H813.955L700.095 1371L473.096 1461.26H472.736L434.542 1522.15H436.704L474.177 1462.54L701.176 1372.28H701.537L815.397 1191.32L1042.4 1101.06H1042.76L1156.62 920.101L1383.62 829.837H1383.98L1497.84 648.882L1724.83 558.618H1725.2L1839.06 377.663L1914 347.859V346.156L1837.61 376.386ZM1894.54 421.518L1780.68 602.473L1553.68 692.737H1553.32L1439.46 873.692L1212.47 963.956H1212.1L1098.24 1144.91L871.246 1235.18H870.885L757.025 1416.13L530.026 1506.39H529.666L519.937 1521.72H522.099L531.107 1507.25L758.106 1416.98H758.467L872.327 1236.03L1099.33 1145.76H1099.69L1213.55 964.808L1440.55 874.543H1440.91L1554.77 693.589L1781.76 603.324H1782.13L1895.98 422.37L1914 415.131V413.428L1894.54 421.518ZM1866.08 398.952L1752.22 579.907L1525.22 670.171H1524.86L1411.36 851.552L1184.36 941.816H1184L1070.14 1123.2L843.141 1213.46H842.781L728.921 1394.42L501.922 1484.68H501.561L477.42 1523H479.582L502.642 1485.96L729.641 1395.69H730.002L843.862 1214.74L1070.86 1124.47H1071.22L1185.08 943.519L1412.08 853.255H1412.44L1526.3 672.3L1753.3 582.035H1753.66L1867.52 400.229L1914 381.921V380.218L1866.08 398.952ZM1752.22 308.262L1638.72 489.642L1411.72 579.907H1411.36L1297.5 760.861L1070.14 851.552H1069.78L955.92 1032.51L728.921 1122.77H728.56L614.701 1303.73L387.701 1393.99H387.341L306.63 1522.57H308.792L388.782 1395.27L615.781 1305H616.142L730.002 1124.05L957.001 1033.78H957.361L1071.22 852.829L1298.22 762.564H1298.58L1412.44 581.61L1639.44 491.345H1639.8L1753.66 310.391L1913.64 246.524V244.821L1752.22 308.262ZM1667.54 240.563L1553.32 421.518L1326.33 511.782H1325.96L1212.1 692.737L985.106 783.002H984.745L870.885 963.956L643.886 1054.22H643.526L529.666 1236.03L302.667 1326.29H302.306L188.446 1507.25L149.532 1522.57H154.216L189.888 1508.52H190.248L304.108 1327.57L531.107 1237.3H531.467L645.327 1056.35L872.327 966.085H872.687L986.547 785.13L1213.55 694.866H1213.91L1327.77 513.911L1554.77 423.647H1555.13L1668.99 242.692L1895.98 152.428H1896.35L1914.36 123.901V119.217L1894.9 150.299L1667.54 240.563ZM1780.68 331.254L1666.82 512.208L1439.82 602.473H1439.46L1325.96 783.427L1098.97 873.692H1098.61L984.745 1054.65L757.746 1144.91H757.386L643.526 1325.87L416.527 1416.13H416.166L349.508 1523H351.67L417.607 1418.26L644.607 1327.99H644.967L758.827 1147.04L985.826 1056.78H986.187L1100.05 875.821L1327.05 785.556H1327.41L1441.27 604.602L1668.27 514.337H1668.63L1782.49 332.105L1914.36 279.735V278.032L1780.68 331.254ZM1837.61 919.25L1723.75 1100.2L1496.75 1190.47H1496.39L1382.53 1371.42L1155.54 1461.69H1155.17L1116.98 1523H1119.14L1156.62 1463.39L1383.62 1373.13H1383.98L1497.84 1192.17L1724.83 1101.91H1725.2L1839.06 920.953L1914 891.149V889.446L1837.61 919.25ZM1866.08 127.307L1639.08 217.571H1638.72L1524.86 398.526L1297.86 488.791H1297.5L1183.64 669.745L956.641 760.01H956.28L842.42 940.964L615.421 1031.23H615.061L501.201 1213.46L274.202 1303.73H273.841L159.981 1484.68L64.1372 1523H68.8214L161.423 1486.38H161.783L275.643 1305.43L502.642 1215.16H503.002L616.862 1034.21L843.862 943.945H844.222L958.082 762.99L1185.08 672.726H1185.44L1299.3 491.771L1526.3 401.507H1526.66L1640.52 220.552L1867.52 130.287H1867.88L1914.36 56.6282V51.0931L1866.08 127.307ZM1809.15 353.82L1695.29 534.774L1468.29 625.039H1467.93L1354.07 805.994L1127.07 896.258H1126.71L1012.85 1077.21L785.851 1167.48H785.49L671.63 1348.43L444.631 1438.7H444.271L392.025 1522.15H394.187L445.712 1439.97L672.711 1349.71H673.072L786.932 1168.75L1013.93 1078.49H1014.29L1128.15 897.535L1355.15 807.271H1355.51L1469.37 626.316L1696.37 536.052H1696.73L1810.59 355.097L1914 313.797V312.094L1809.15 353.82ZM1752.22 1394.42L1671.51 1523H1673.67L1753.66 1395.69L1913.64 1331.83V1330.12L1752.22 1394.42ZM1780.68 1416.98L1714.03 1523H1716.19L1782.13 1418.26L1914 1365.89V1364.19L1780.68 1416.98ZM1695.65 1349.28L1586.47 1523H1588.64L1697.09 1350.14L1914 1263.7V1262L1695.65 1349.28ZM1809.15 1439.55L1756.9 1523H1759.06L1810.59 1440.83L1914 1399.53V1397.82L1809.15 1439.55ZM1667.54 1326.29L1553.68 1507.25L1514.77 1522.57H1519.45L1555.13 1508.52H1555.49L1669.35 1327.57L1896.35 1237.3H1896.71L1914.72 1208.78V1204.95L1895.26 1236.03L1667.54 1326.29ZM1894.54 1507.67L1884.82 1523H1886.98L1895.98 1508.52L1914 1501.29V1499.58L1894.54 1507.67ZM1866.08 1485.11L1841.94 1523.43H1844.1L1867.16 1486.38L1913.64 1468.07V1466.37L1866.08 1485.11ZM1809.15 896.684L1695.29 1077.64L1468.29 1167.9H1467.93L1354.07 1348.86L1127.07 1439.12H1126.71L1074.46 1522.57H1076.63L1128.15 1440.4L1355.15 1350.14H1355.51L1469.37 1169.18L1696.37 1078.92H1696.73L1810.59 897.961L1914 856.661V854.958L1809.15 896.684ZM1837.61 1462.54L1799.42 1523.43H1801.58L1839.06 1463.82L1914 1434.01V1432.31L1837.61 1462.54ZM1639.08 1303.73L1525.22 1484.68L1429.38 1523H1434.06L1526.66 1486.38H1527.02L1640.88 1305.43L1867.88 1215.16H1868.24L1914.72 1141.5V1137.67L1866.08 1213.46L1639.08 1303.73ZM1724.11 828.985L1610.25 1009.94L1383.26 1100.2H1382.89L1269.03 1281.16L1042.04 1371.42H1041.68L946.552 1522.57H948.714L1043.12 1372.7L1270.12 1282.44H1270.48L1384.34 1101.48L1611.34 1011.22H1611.7L1725.56 830.263L1914 755.326V753.623L1724.11 828.985ZM1780.68 874.118L1666.82 1055.07L1439.82 1145.34H1439.46L1325.96 1326.72L1098.97 1416.98H1098.61L1031.95 1523H1034.11L1100.05 1418.26L1327.05 1327.99H1327.41L1441.27 1147.04L1668.27 1056.78H1668.63L1782.49 875.821L1914.36 823.45V821.747L1780.68 874.118ZM1752.22 851.552L1638.36 1032.51L1411.36 1122.77H1411L1297.14 1303.73L1070.14 1393.99H1069.78L989.069 1522.57H991.231L1071.22 1395.27L1298.22 1305H1298.58L1412.44 1124.05L1639.44 1033.78H1639.8L1753.66 852.829L1913.64 788.963V787.259L1752.22 851.552ZM1695.65 806.419L1581.79 987.374L1354.79 1077.64H1354.43L1240.57 1258.59L1013.57 1348.86H1013.21L904.034 1522.57H906.196L1014.65 1349.71L1241.65 1259.44H1242.01L1355.87 1078.49L1582.87 988.226H1583.23L1697.09 807.271L1914 720.838V719.135L1695.65 806.419ZM1610.61 1281.16L1496.75 1462.11L1343.98 1523H1348.66L1498.2 1463.39H1498.56L1612.42 1282.44L1839.42 1192.17H1839.78L1914.72 1072.95V1069.12L1837.61 1190.89L1610.61 1281.16ZM1582.15 1258.59L1468.29 1439.55L1258.59 1523H1263.27L1469.37 1440.83H1469.73L1583.59 1259.87L1810.59 1169.61H1810.95L1914.36 1005.26V1001.42L1809.51 1168.33L1582.15 1258.59ZM1724.11 1371.85L1628.99 1523H1631.15L1725.56 1373.13L1914 1298.19V1296.49L1724.11 1371.85ZM133.318 648.882L360.317 558.618H360.677L474.537 377.663L701.537 287.399H701.897L815.757 106.444L1042.76 16.1795H1043.12L1052.85 0.851552H1050.68L1041.68 15.3279L814.676 105.592H814.316L700.456 286.547L473.457 376.812H473.096L359.236 557.766L132.237 648.031H131.877L18.0168 828.985L0.000941247 836.224V837.927L19.458 830.263L133.318 648.882ZM76.388 875.395L190.248 694.44L417.247 604.176H417.607L531.467 423.221L758.467 332.957H758.827L872.687 152.002L1099.69 61.7375H1100.05L1138.24 0H1136.08L1098.61 59.6086L871.606 149.873H871.246L757.386 330.828L530.386 421.092H530.026L416.166 602.047L189.167 692.311H188.807L74.9467 873.266L0.000941247 903.07V904.773L76.388 875.395ZM274.922 1033.78L388.782 852.829L615.781 762.564H616.142L730.002 581.61L957.001 491.345H957.361L1071.22 310.391L1298.22 220.126H1298.58L1412.8 38.3198L1508.65 0H1503.96L1411.36 36.6167H1411L1297.14 217.571L1070.14 307.836H1069.78L956.28 489.642L729.281 579.907H728.921L615.061 760.861L388.062 851.126H387.701L273.841 1032.51L46.8421 1122.77H46.4817L0.000941247 1196.86V1200.69L47.923 1124.05L274.922 1033.78ZM246.818 1011.22L360.677 830.263L587.677 739.998H588.037L701.897 559.044L928.896 468.779H929.257L1043.12 287.824L1270.12 197.56H1270.48L1384.34 16.6053L1423.25 0H1418.57L1382.89 14.0506H1382.53L1268.67 195.005L1041.68 285.27H1041.31L927.455 466.224L700.456 556.489H700.095L586.235 737.444L359.236 827.708H358.876L245.016 1008.66L18.0168 1098.93H17.6564L-0.359375 1127.45V1131.29L19.0977 1100.2L246.818 1011.22ZM58.3722 0H54.0484L18.3771 14.0506L18.0168 14.4764L0.000941247 43.0034V46.8353L19.458 15.7537L58.3722 0ZM161.783 943.093L275.283 762.139L502.282 671.874H502.642L616.502 490.919L843.501 400.655H843.862L957.721 219.7L1184.72 129.436H1185.08L1266.15 0H1263.99L1184 127.307L957.001 217.571H956.641L842.781 398.526L615.781 488.791H615.421L501.561 669.745L274.562 760.01H274.202L160.342 940.964L0.000941247 1005.68V1007.39L161.783 943.093ZM133.318 920.527L247.178 739.573L474.177 649.308H474.537L588.397 468.353L815.397 378.089H815.757L929.617 197.134L1156.62 106.87H1156.98L1223.27 0H1221.11L1155.17 104.741L928.176 195.005H927.815L813.955 375.96L586.956 466.224H586.596L472.736 647.179L245.737 737.444H245.376L131.516 918.398L0.000941247 971.62V973.323L133.318 920.527ZM104.853 897.961L218.713 717.006L445.712 626.742H446.072L559.932 445.787L786.932 355.523H787.292L900.792 173.717L1127.79 83.452H1128.15L1180.76 0H1178.6L1127.07 82.1747L900.071 172.439H899.711L785.49 353.82L558.491 444.084H558.131L444.271 625.039L217.272 715.303H216.911L103.051 896.258L0.000941247 937.984V939.687L104.853 897.961ZM76.388 1418.26L190.248 1237.3L417.247 1147.04H417.607L531.467 966.085L758.467 875.821H758.827L872.687 694.866L1099.69 604.602H1100.05L1213.91 423.647L1440.91 333.382H1441.27L1555.13 152.428L1782.13 62.1633H1782.49L1820.68 0H1818.52L1781.04 59.6086L1554.04 149.873H1553.68L1439.82 330.828L1212.83 421.092H1212.47L1098.61 602.047L871.606 692.311H871.246L757.386 873.266L530.386 963.531H530.026L416.166 1144.49L189.167 1234.75H188.807L74.9467 1415.7L0.000941247 1445.51V1447.21L76.388 1418.26ZM47.923 1395.69L161.783 1214.74L388.782 1124.47H389.142L503.002 943.519L730.002 853.255H730.362L844.222 672.3L1071.22 582.035H1071.58L1185.08 400.229L1412.08 309.965H1412.44L1526.3 129.01L1753.3 38.7456H1753.66L1777.8 0.425776H1775.64L1752.58 37.4683L1525.58 127.733H1525.22L1411.36 308.687L1184.36 398.952H1184L1070.14 579.907L843.141 670.171H842.781L728.921 851.552L501.922 941.816H501.561L387.701 1122.77L160.702 1213.04H160.342L46.4817 1393.99L0.000941247 1413.15V1414.85L47.923 1395.69ZM133.318 1192.17L360.317 1101.91H360.677L474.537 920.953L701.537 830.689H701.897L815.757 649.734L1042.76 559.469H1043.12L1156.98 378.515L1383.98 288.25H1384.34L1498.2 107.295L1725.2 17.031H1725.56L1735.28 1.7031H1733.12L1724.11 16.1795L1497.11 106.444H1496.75L1382.89 287.399L1155.9 377.663H1155.54L1041.68 558.618L814.676 648.882H814.316L700.456 829.837L473.457 920.101H473.096L359.236 1101.06L132.237 1191.32H131.877L18.0168 1371.85L0.000941247 1379.09V1380.79L19.458 1373.13L133.318 1192.17ZM303.387 1056.35L417.247 875.395L644.246 785.13H644.607L758.467 604.176L985.466 513.911H985.826L1100.05 332.105L1327.05 241.841H1327.41L1441.27 60.8859L1594.04 0H1589.36L1439.82 59.6086H1439.46L1325.96 240.563L1098.97 330.828H1098.61L984.745 511.782L757.746 602.047H757.386L643.526 783.427L416.527 873.692H416.166L302.306 1054.65L75.307 1144.91H74.9467L0.000941247 1264.55V1268.39L76.388 1147.04L303.387 1056.35ZM133.318 1463.39L247.178 1282.44L474.177 1192.17H474.537L588.397 1011.22L815.397 920.953H815.757L929.617 739.998L1156.62 649.734H1156.98L1270.84 468.779L1497.84 378.515H1498.2L1612.06 197.56L1839.06 107.295H1839.42L1905.71 0H1903.55L1837.61 104.741L1610.61 195.005H1610.25L1496.39 375.96L1269.4 466.224H1269.03L1155.17 647.179L928.176 737.444H927.815L813.955 918.398L586.956 1008.66H586.596L472.736 1189.62L245.737 1279.88H245.376L131.516 1460.84L0.000941247 1514.91V1516.61L133.318 1463.39ZM331.852 1078.92L445.712 897.961L672.711 807.697H673.072L786.932 626.742L1013.93 536.477H1014.29L1128.15 355.523L1355.15 265.258H1355.51L1469.37 84.3036L1679.07 0H1674.39L1468.29 82.1747H1467.93L1354.07 263.129L1127.07 353.394H1126.71L1012.85 534.349L785.851 624.613H785.49L671.63 805.568L444.631 895.832H444.271L330.411 1076.79L103.412 1167.05H103.051L0.000941247 1332.68V1336.51L104.853 1169.61L331.852 1078.92ZM190.248 965.659L304.108 784.705L531.107 694.44H531.467L645.327 513.486L872.327 423.221H872.687L986.547 242.266L1213.55 152.002H1213.91L1308.67 0H1306.51L1212.1 149.873L985.106 240.138H984.745L870.885 421.518L643.886 511.782H643.526L529.666 693.163L302.667 783.427H302.306L188.446 964.382L0.000941247 1039.74V1041.45L190.248 965.659ZM104.853 1440.83L218.713 1259.87L445.712 1169.61H446.072L559.932 988.651L786.932 898.387H787.292L901.152 717.432L1128.15 627.168H1128.51L1242.37 446.213L1469.37 355.949H1469.73L1583.59 174.994L1810.59 84.7294H1810.95L1863.2 0H1861.03L1809.51 82.1747L1582.51 172.439H1582.15L1468.29 353.394L1241.29 443.658H1240.93L1127.07 624.613L900.071 714.878H899.711L785.49 896.684L558.491 986.948H558.131L444.271 1167.9L217.272 1258.17H216.911L103.051 1439.12L0.000941247 1480.85V1482.55L104.853 1440.83ZM47.923 852.829L161.783 671.874L388.782 581.61H389.142L503.002 400.229L730.002 309.965H730.362L844.222 129.01L1071.22 38.7456H1071.58L1095.72 0.425776H1093.56L1070.14 37.0425L843.141 127.307H842.781L728.921 308.262L501.922 398.526H501.561L387.701 579.481L160.702 669.745H160.342L46.4817 851.552L0.000941247 869.86V871.563L47.923 852.829ZM104.853 355.097L218.713 174.142L445.712 83.8778H446.072L498.318 0H496.156L444.631 82.1747L217.632 172.439H217.272L103.412 353.82L0.000941247 394.694V396.397L104.853 355.097ZM161.783 400.229L275.643 219.275L502.642 129.01H503.002L583.713 0H581.551L501.561 127.307L274.562 217.571H274.202L159.981 398.952L0.000941247 462.818V464.521L161.783 400.229ZM190.248 422.795L304.108 241.841L531.107 151.576H531.467L626.231 0H624.069L529.666 149.873L302.667 240.563H302.306L188.446 421.518L0.000941247 496.455V498.158L190.248 422.795ZM133.318 377.663L247.178 196.708L474.177 106.444H474.537L541.196 0H539.034L473.096 104.741L246.097 195.005H245.737L131.877 376.386L0.000941247 428.756V430.459L133.318 377.663ZM218.353 445.361L332.213 264.407L559.212 174.142H559.572L669.108 0H666.586L558.131 172.865L331.132 263.129H330.771L216.911 444.084L0.000941247 530.517V532.22L218.353 445.361ZM143.767 0H139.083L46.8421 36.6167H46.4817L0.000941247 110.702V114.534L47.923 38.3198L143.767 0ZM314.557 0H309.873L103.412 82.1747H103.051L0.000941247 246.524V250.356L104.853 83.452L314.557 0ZM229.162 0H224.478L75.307 59.6086H74.9467L0.000941247 178.826V182.658L76.388 61.3117L229.162 0ZM246.818 468.353L360.677 287.399L587.677 197.134H588.037L701.897 16.1795L740.811 0H736.127L700.456 14.0506H700.095L586.235 195.005L359.236 285.27H358.876L245.016 466.224L18.0168 556.489H17.6564L-0.359375 585.016V588.848L19.0977 557.766L246.818 468.353ZM76.388 332.105L190.248 151.15L417.247 60.8859H417.607L455.801 0H453.639L416.166 59.6086L189.167 149.873H188.807L74.9467 331.254L0.000941247 361.058V362.761L76.388 332.105ZM331.852 536.052L445.712 355.097L672.711 264.833H673.072L786.932 83.8778L996.636 0H991.952L785.851 82.1747H785.49L671.63 263.129L444.631 353.394H444.271L330.411 534.349L103.412 624.613H103.051L0.000941247 789.388V793.22L104.853 626.316L331.852 536.052ZM274.922 490.919L389.142 309.539L616.142 219.275H616.502L730.362 38.3198L826.206 0H821.522L728.921 36.6167H728.56L614.701 217.571L387.701 307.836H387.341L273.841 489.642L46.8421 579.907H46.4817L0.000941247 653.992V657.824L47.923 581.61L274.922 490.919ZM303.387 513.486L417.607 332.105L644.607 241.841H644.967L758.827 60.8859L911.601 0H906.917L757.386 59.6086H757.025L643.165 240.563L416.166 330.828H415.806L301.946 511.782L74.9467 602.047H74.5864L0.000941247 721.69V725.522L76.388 604.176L303.387 513.486ZM47.923 309.539L161.783 128.584L388.782 38.3198H389.142L413.284 0H410.761L387.701 37.0425L160.702 127.307H160.342L46.4817 308.262L0.000941247 326.996V328.699L47.923 309.539ZM133.318 106.018L360.317 15.7537H360.677L370.406 0.425776H368.244L359.236 14.9022L132.237 105.167H131.877L18.0168 285.696L0.000941247 292.934V294.637L19.458 286.973L133.318 106.018ZM218.353 988.651L332.213 807.697L559.212 717.432H559.572L673.432 536.477L900.431 446.213H900.792L1014.65 265.258L1241.65 174.994H1242.01L1351.55 0H1349.39L1240.93 172.865L1013.93 263.129H1013.57L899.711 444.084L672.711 534.349H672.351L558.491 715.303L331.492 805.568H331.132L217.272 986.522L0.000941247 1073.38V1075.08L218.353 988.651Z" fill="#00160A"/>
</g>
<defs>
<clipPath id="clip0_3831_543">
<rect width="1914" height="1523" fill="white"/>
</clipPath>
</defs>
</svg>
