<svg width="56" height="41" viewBox="0 0 56 41" fill="none" xmlns="http://www.w3.org/2000/svg">
<mask id="path-1-inside-1_3814_2181" fill="white">
<path d="M12 0.34375C18.625 0.34375 24 5.71875 24 12.3438L24 24.3438C24 33.2188 16.75 40.3438 8 40.3438C5.75 40.3438 4 38.5938 4 36.3438C4 34.2188 5.75 32.3438 8 32.3438C12.375 32.3438 16 28.8438 16 24.3438V23.7188C14.625 24.0938 13.375 24.3438 12 24.3438C5.25 24.3438 0 19.0938 0 12.3438C0 5.71875 5.25 0.34375 12 0.34375ZM56 12.3438V24.3438C56 33.2188 48.75 40.3438 40 40.3438C37.75 40.3438 36 38.5938 36 36.3438C36 34.2188 37.75 32.3438 40 32.3438C44.375 32.3438 48 28.8438 48 24.3438V23.7188C46.625 24.0938 45.375 24.3438 44 24.3438C37.25 24.3438 32 19.0938 32 12.3438C32 5.71875 37.25 0.34375 44 0.34375C50.625 0.34375 56 5.71875 56 12.3438Z"/>
</mask>
<path d="M16 23.7188H17V22.4095L15.7369 22.754L16 23.7188ZM48 23.7188H49V22.4095L47.7369 22.754L48 23.7188ZM12 1.34375C18.0727 1.34375 23 6.27103 23 12.3438H25C25 5.16647 19.1773 -0.65625 12 -0.65625V1.34375ZM23 12.3438L23 24.3438H25L25 12.3438H23ZM23 24.3438C23 32.6614 16.2028 39.3438 8 39.3438L8 41.3438C17.2972 41.3438 25 33.7761 25 24.3438H23ZM8 39.3438C6.30228 39.3438 5 38.0415 5 36.3438H3C3 39.146 5.19772 41.3438 8 41.3438L8 39.3438ZM5 36.3438C5 34.7507 6.32245 33.3438 8 33.3438V31.3438C5.17755 31.3438 3 33.6868 3 36.3438H5ZM8 33.3438C12.9171 33.3438 17 29.4062 17 24.3438H15C15 28.2813 11.8329 31.3438 8 31.3438V33.3438ZM17 24.3438V23.7188H15V24.3438H17ZM15.7369 22.754C14.4011 23.1183 13.2482 23.3438 12 23.3438V25.3438C13.5018 25.3438 14.8489 25.0692 16.2631 24.6835L15.7369 22.754ZM12 23.3438C5.80228 23.3438 1 18.5415 1 12.3438H-1C-1 19.646 4.69772 25.3438 12 25.3438V23.3438ZM1 12.3438C1 6.26422 5.80908 1.34375 12 1.34375V-0.65625C4.69092 -0.65625 -1 5.17328 -1 12.3438H1ZM55 12.3438V24.3438H57V12.3438L55 12.3438ZM55 24.3438C55 32.6614 48.2028 39.3438 40 39.3438V41.3438C49.2972 41.3438 57 33.7761 57 24.3438H55ZM40 39.3438C38.3023 39.3438 37 38.0415 37 36.3438H35C35 39.146 37.1977 41.3438 40 41.3438V39.3438ZM37 36.3438C37 34.7507 38.3224 33.3438 40 33.3438V31.3438C37.1776 31.3438 35 33.6868 35 36.3438H37ZM40 33.3438C44.9171 33.3438 49 29.4062 49 24.3438H47C47 28.2813 43.8329 31.3438 40 31.3438V33.3438ZM49 24.3438V23.7188H47V24.3438H49ZM47.7369 22.754C46.4011 23.1183 45.2482 23.3438 44 23.3438V25.3438C45.5018 25.3438 46.8489 25.0692 48.2631 24.6835L47.7369 22.754ZM44 23.3438C37.8023 23.3438 33 18.5415 33 12.3438H31C31 19.646 36.6977 25.3438 44 25.3438V23.3438ZM33 12.3438C33 6.26422 37.8091 1.34375 44 1.34375V-0.65625C36.6909 -0.65625 31 5.17328 31 12.3438H33ZM44 1.34375C50.0727 1.34375 55 6.27103 55 12.3438L57 12.3438C57 5.16647 51.1773 -0.65625 44 -0.65625V1.34375Z" fill="#00D563" mask="url(#path-1-inside-1_3814_2181)"/>
</svg>
