<svg xmlns="http://www.w3.org/2000/svg" width="232" height="215" viewBox="0 0 232 215" fill="none">
  <g opacity="0.75">
    <path d="M63.9646 4.12289C63.9646 3.30761 63.7228 2.51067 63.27 1.83274C62.8171 1.15481 62.1734 0.626367 61.4202 0.314211C60.6671 0.00205599 59.8383 -0.0798458 59.0386 0.0789531C58.239 0.237752 57.5043 0.630062 56.9276 1.20631C56.3508 1.78256 55.9579 2.51693 55.7984 3.31646C55.6389 4.11599 55.7201 4.94486 56.0316 5.69828C56.3431 6.4517 56.871 7.09584 57.5485 7.54929C58.2261 8.00274 59.0229 8.24516 59.8382 8.24586C60.932 8.24586 61.981 7.8115 62.7548 7.0384C63.5285 6.26531 63.9636 5.21668 63.9646 4.12289Z" fill="#00D563"/>
    <path d="M91.8161 4.12284C91.8161 3.30741 91.5743 2.51026 91.1213 1.83226C90.6682 1.15425 90.0244 0.625891 89.271 0.313838C88.5176 0.00178578 87.6886 -0.0798606 86.8889 0.0792225C86.0891 0.238306 85.3545 0.630944 84.7779 1.20754C84.2013 1.78414 83.8086 2.51879 83.6495 3.31855C83.4905 4.11831 83.5721 4.94722 83.8842 5.70058C84.1962 6.45394 84.7247 7.09792 85.4027 7.55095C86.0807 8.00398 86.8778 8.24581 87.6932 8.24581C88.7867 8.24581 89.8354 7.81133 90.6086 7.03814C91.3818 6.26495 91.8161 5.2163 91.8161 4.12284Z" fill="#00D563"/>
    <path d="M119.675 4.12284C119.675 3.30741 119.434 2.51026 118.981 1.83226C118.528 1.15425 117.884 0.625891 117.13 0.313838C116.377 0.00178578 115.548 -0.0798606 114.748 0.0792225C113.948 0.238306 113.214 0.630944 112.637 1.20754C112.061 1.78414 111.668 2.51879 111.509 3.31855C111.35 4.11831 111.431 4.94722 111.744 5.70058C112.056 6.45394 112.584 7.09792 113.262 7.55095C113.94 8.00398 114.737 8.24581 115.553 8.24581C116.646 8.24581 117.695 7.81133 118.468 7.03814C119.241 6.26495 119.675 5.2163 119.675 4.12284Z" fill="#00D563"/>
    <path d="M147.527 4.12284C147.527 3.30741 147.285 2.51026 146.832 1.83226C146.379 1.15425 145.735 0.625891 144.982 0.313838C144.229 0.00178578 143.4 -0.0798606 142.6 0.0792225C141.8 0.238306 141.065 0.630944 140.489 1.20754C139.912 1.78414 139.52 2.51879 139.36 3.31855C139.201 4.11831 139.283 4.94722 139.595 5.70058C139.907 6.45394 140.436 7.09792 141.114 7.55095C141.792 8.00398 142.589 8.24581 143.404 8.24581C144.498 8.24581 145.546 7.81133 146.319 7.03814C147.093 6.26495 147.527 5.2163 147.527 4.12284Z" fill="#00D563"/>
    <path d="M175.379 4.12284C175.379 3.30741 175.137 2.51026 174.684 1.83226C174.231 1.15425 173.587 0.625891 172.833 0.313838C172.08 0.00178578 171.251 -0.0798606 170.451 0.0792225C169.652 0.238306 168.917 0.630944 168.34 1.20754C167.764 1.78414 167.371 2.51879 167.212 3.31855C167.053 4.11831 167.135 4.94722 167.447 5.70058C167.759 6.45394 168.287 7.09792 168.965 7.55095C169.643 8.00398 170.44 8.24581 171.256 8.24581C172.349 8.24581 173.398 7.81133 174.171 7.03814C174.944 6.26495 175.379 5.2163 175.379 4.12284Z" fill="#00D563"/>
    <path d="M36.1052 29.9354C36.1052 29.12 35.8634 28.3229 35.4103 27.6449C34.9573 26.9669 34.3134 26.4384 33.56 26.1263C32.8066 25.8143 31.9777 25.7326 31.1779 25.8917C30.3782 26.0508 29.6435 26.4434 29.0669 27.02C28.4903 27.5966 28.0977 28.3313 27.9386 29.1311C27.7795 29.9308 27.8612 30.7598 28.1732 31.5132C28.4853 32.2666 29.0137 32.9104 29.6917 33.3635C30.3697 33.8165 31.1668 34.0583 31.9823 34.0583C33.0757 34.0583 34.1244 33.6239 34.8976 32.8507C35.6708 32.0776 36.1052 31.0289 36.1052 29.9354Z" fill="#00D563"/>
    <path d="M63.9646 29.9354C63.9646 29.1201 63.7228 28.3231 63.27 27.6452C62.8171 26.9672 62.1734 26.4388 61.4202 26.1266C60.6671 25.8145 59.8383 25.7327 59.0386 25.8915C58.239 26.0503 57.5043 26.4426 56.9276 27.0188C56.3508 27.5951 55.9579 28.3293 55.7984 29.1289C55.6389 29.9284 55.7201 30.7573 56.0316 31.5107C56.3431 32.2641 56.871 32.9083 57.5485 33.3617C58.2261 33.8152 59.0229 34.0576 59.8382 34.0583C60.932 34.0583 61.981 33.624 62.7548 32.8509C63.5285 32.0778 63.9636 31.0292 63.9646 29.9354Z" fill="#00D563"/>
    <path d="M91.8161 29.9354C91.8161 29.12 91.5743 28.3229 91.1213 27.6449C90.6682 26.9669 90.0244 26.4384 89.271 26.1263C88.5176 25.8143 87.6886 25.7326 86.8889 25.8917C86.0891 26.0508 85.3545 26.4434 84.7779 27.02C84.2013 27.5966 83.8086 28.3313 83.6495 29.1311C83.4905 29.9308 83.5721 30.7598 83.8842 31.5132C84.1962 32.2666 84.7247 32.9104 85.4027 33.3635C86.0807 33.8165 86.8778 34.0583 87.6932 34.0583C88.7867 34.0583 89.8354 33.6239 90.6086 32.8507C91.3818 32.0776 91.8161 31.0289 91.8161 29.9354Z" fill="#00D563"/>
    <path d="M119.675 29.9354C119.675 29.12 119.434 28.3229 118.981 27.6449C118.528 26.9669 117.884 26.4384 117.13 26.1263C116.377 25.8143 115.548 25.7326 114.748 25.8917C113.948 26.0508 113.214 26.4434 112.637 27.02C112.061 27.5966 111.668 28.3313 111.509 29.1311C111.35 29.9308 111.431 30.7598 111.744 31.5132C112.056 32.2666 112.584 32.9104 113.262 33.3635C113.94 33.8165 114.737 34.0583 115.553 34.0583C116.646 34.0583 117.695 33.6239 118.468 32.8507C119.241 32.0776 119.675 31.0289 119.675 29.9354Z" fill="#00D563"/>
    <path d="M147.527 29.9354C147.527 29.12 147.285 28.3229 146.832 27.6449C146.379 26.9669 145.735 26.4384 144.982 26.1263C144.229 25.8143 143.4 25.7326 142.6 25.8917C141.8 26.0508 141.065 26.4434 140.489 27.02C139.912 27.5966 139.52 28.3313 139.36 29.1311C139.201 29.9308 139.283 30.7598 139.595 31.5132C139.907 32.2666 140.436 32.9104 141.114 33.3635C141.792 33.8165 142.589 34.0583 143.404 34.0583C144.498 34.0583 145.546 33.6239 146.319 32.8507C147.093 32.0776 147.527 31.0289 147.527 29.9354Z" fill="#00D563"/>
    <path d="M175.379 29.9354C175.379 29.12 175.137 28.3229 174.684 27.6449C174.231 26.9669 173.587 26.4384 172.833 26.1263C172.08 25.8143 171.251 25.7326 170.451 25.8917C169.652 26.0508 168.917 26.4434 168.34 27.02C167.764 27.5966 167.371 28.3313 167.212 29.1311C167.053 29.9308 167.135 30.7598 167.447 31.5132C167.759 32.2666 168.287 32.9104 168.965 33.3635C169.643 33.8165 170.44 34.0583 171.256 34.0583C172.349 34.0583 173.398 33.6239 174.171 32.8507C174.944 32.0776 175.379 31.0289 175.379 29.9354Z" fill="#00D563"/>
    <path d="M203.238 29.9354C203.238 29.12 202.996 28.3229 202.543 27.6449C202.09 26.9669 201.446 26.4384 200.693 26.1263C199.94 25.8143 199.111 25.7326 198.311 25.8917C197.511 26.0508 196.776 26.4434 196.2 27.02C195.623 27.5966 195.23 28.3313 195.071 29.1311C194.912 29.9308 194.994 30.7598 195.306 31.5132C195.618 32.2666 196.147 32.9104 196.825 33.3635C197.503 33.8165 198.3 34.0583 199.115 34.0583C200.209 34.0583 201.257 33.6239 202.03 32.8507C202.804 32.0776 203.238 31.0289 203.238 29.9354Z" fill="#00D563"/>
    <path d="M8.24581 55.744C8.24581 54.9286 8.00398 54.1315 7.55095 53.4535C7.09792 52.7754 6.454 52.247 5.70064 51.9349C4.94727 51.6229 4.11831 51.5412 3.31855 51.7003C2.51879 51.8594 1.78414 52.2521 1.20754 52.8287C0.630944 53.4053 0.238306 54.14 0.0792225 54.9398C-0.0798606 55.7395 0.00178578 56.5684 0.313838 57.3218C0.625891 58.0751 1.1543 58.7191 1.83231 59.1722C2.51032 59.6252 3.30746 59.8669 4.12289 59.8669C5.21636 59.8669 6.265 59.4325 7.03819 58.6593C7.81139 57.8861 8.24581 56.8375 8.24581 55.744Z" fill="#00D563"/>
    <path d="M36.1052 55.744C36.1052 54.9286 35.8634 54.1315 35.4103 53.4535C34.9573 52.7754 34.3134 52.247 33.56 51.9349C32.8066 51.6229 31.9777 51.5412 31.1779 51.7003C30.3782 51.8594 29.6435 52.2521 29.0669 52.8287C28.4903 53.4053 28.0977 54.14 27.9386 54.9398C27.7795 55.7395 27.8612 56.5684 28.1732 57.3218C28.4853 58.0751 29.0137 58.7191 29.6917 59.1722C30.3697 59.6252 31.1668 59.8669 31.9823 59.8669C33.0757 59.8669 34.1244 59.4325 34.8976 58.6593C35.6708 57.8861 36.1052 56.8375 36.1052 55.744Z" fill="#00D563"/>
    <path d="M63.9646 55.744C63.9646 54.9287 63.7228 54.1318 63.27 53.4538C62.8171 52.7759 62.1734 52.2475 61.4202 51.9353C60.6671 51.6231 59.8383 51.5412 59.0386 51.7C58.239 51.8588 57.5043 52.2512 56.9276 52.8274C56.3508 53.4036 55.9579 54.1379 55.7984 54.9374C55.6389 55.737 55.7201 56.5659 56.0316 57.3194C56.3431 58.0728 56.871 58.7169 57.5485 59.1704C58.2261 59.6238 59.0229 59.8662 59.8382 59.8668C60.932 59.8668 61.981 59.4326 62.7548 58.6595C63.5285 57.8864 63.9636 56.8378 63.9646 55.744Z" fill="#00D563"/>
    <path d="M91.8161 55.744C91.8161 54.9286 91.5743 54.1315 91.1213 53.4535C90.6682 52.7754 90.0244 52.247 89.271 51.9349C88.5176 51.6229 87.6886 51.5412 86.8889 51.7003C86.0891 51.8594 85.3545 52.2521 84.7779 52.8287C84.2013 53.4053 83.8086 54.14 83.6495 54.9398C83.4905 55.7395 83.5721 56.5684 83.8842 57.3218C84.1962 58.0751 84.7247 58.7191 85.4027 59.1722C86.0807 59.6252 86.8778 59.8669 87.6932 59.8669C88.7867 59.8669 89.8354 59.4325 90.6086 58.6593C91.3818 57.8861 91.8161 56.8375 91.8161 55.744Z" fill="#00D563"/>
    <path d="M119.675 55.744C119.675 54.9286 119.434 54.1315 118.981 53.4535C118.528 52.7754 117.884 52.247 117.13 51.9349C116.377 51.6229 115.548 51.5412 114.748 51.7003C113.948 51.8594 113.214 52.2521 112.637 52.8287C112.061 53.4053 111.668 54.14 111.509 54.9398C111.35 55.7395 111.431 56.5684 111.744 57.3218C112.056 58.0751 112.584 58.7191 113.262 59.1722C113.94 59.6252 114.737 59.8669 115.553 59.8669C116.646 59.8669 117.695 59.4325 118.468 58.6593C119.241 57.8861 119.675 56.8375 119.675 55.744Z" fill="#00D563"/>
    <path d="M147.527 55.744C147.527 54.9286 147.285 54.1315 146.832 53.4535C146.379 52.7754 145.735 52.247 144.982 51.9349C144.229 51.6229 143.4 51.5412 142.6 51.7003C141.8 51.8594 141.065 52.2521 140.489 52.8287C139.912 53.4053 139.52 54.14 139.36 54.9398C139.201 55.7395 139.283 56.5684 139.595 57.3218C139.907 58.0751 140.436 58.7191 141.114 59.1722C141.792 59.6252 142.589 59.8669 143.404 59.8669C144.498 59.8669 145.546 59.4325 146.319 58.6593C147.093 57.8861 147.527 56.8375 147.527 55.744Z" fill="#00D563"/>
    <path d="M175.379 55.744C175.379 54.9286 175.137 54.1315 174.684 53.4535C174.231 52.7754 173.587 52.247 172.833 51.9349C172.08 51.6229 171.251 51.5412 170.451 51.7003C169.652 51.8594 168.917 52.2521 168.34 52.8287C167.764 53.4053 167.371 54.14 167.212 54.9398C167.053 55.7395 167.135 56.5684 167.447 57.3218C167.759 58.0751 168.287 58.7191 168.965 59.1722C169.643 59.6252 170.44 59.8669 171.256 59.8669C172.349 59.8669 173.398 59.4325 174.171 58.6593C174.944 57.8861 175.379 56.8375 175.379 55.744Z" fill="#00D563"/>
    <path d="M203.238 55.744C203.238 54.9286 202.996 54.1315 202.543 53.4535C202.09 52.7754 201.446 52.247 200.693 51.9349C199.94 51.6229 199.111 51.5412 198.311 51.7003C197.511 51.8594 196.776 52.2521 196.2 52.8287C195.623 53.4053 195.23 54.14 195.071 54.9398C194.912 55.7395 194.994 56.5684 195.306 57.3218C195.618 58.0751 196.147 58.7191 196.825 59.1722C197.503 59.6252 198.3 59.8669 199.115 59.8669C200.209 59.8669 201.257 59.4325 202.03 58.6593C202.804 57.8861 203.238 56.8375 203.238 55.744Z" fill="#00D563"/>
    <path d="M231.097 55.744C231.097 54.9286 230.856 54.1315 230.403 53.4535C229.95 52.7754 229.306 52.247 228.552 51.9349C227.799 51.6229 226.97 51.5412 226.17 51.7003C225.37 51.8594 224.636 52.2521 224.059 52.8287C223.483 53.4053 223.09 54.14 222.931 54.9398C222.772 55.7395 222.853 56.5684 223.165 57.3218C223.477 58.0751 224.006 58.7191 224.684 59.1722C225.362 59.6252 226.159 59.8669 226.975 59.8669C228.068 59.8669 229.117 59.4325 229.89 58.6593C230.663 57.8861 231.097 56.8375 231.097 55.744Z" fill="#00D563"/>
    <path d="M8.24582 81.5568C8.24512 80.7415 8.0027 79.9449 7.54925 79.2673C7.0958 78.5898 6.45166 78.0618 5.69824 77.7503C4.94482 77.4388 4.11595 77.3577 3.31642 77.5172C2.51689 77.6766 1.78257 78.0695 1.20632 78.6462C0.630076 79.223 0.237766 79.9577 0.0789669 80.7574C-0.079832 81.557 0.00201625 82.3858 0.314172 83.139C0.626327 83.8921 1.15477 84.5358 1.8327 84.9887C2.51063 85.4416 3.30762 85.6833 4.12291 85.6833C5.21669 85.6824 6.26533 85.2472 7.03842 84.4734C7.81151 83.6997 8.24582 82.6506 8.24582 81.5568Z" fill="#00D563"/>
    <path d="M36.1052 81.5568C36.1045 80.7415 35.8621 79.9449 35.4086 79.2673C34.9552 78.5898 34.311 78.0618 33.5576 77.7503C32.8042 77.4388 31.9753 77.3577 31.1758 77.5172C30.3763 77.6766 29.6419 78.0695 29.0657 78.6462C28.4895 79.223 28.0971 79.9577 27.9383 80.7574C27.7795 81.557 27.8614 82.3858 28.1735 83.139C28.4857 83.8921 29.0141 84.5358 29.6921 84.9887C30.37 85.4416 31.167 85.6833 31.9823 85.6833C33.0761 85.6824 34.1248 85.2472 34.8978 84.4734C35.6709 83.6997 36.1052 82.6506 36.1052 81.5568Z" fill="#00D563"/>
    <path d="M63.9646 81.5569C63.9639 80.7417 63.7216 79.9452 63.2683 79.2677C62.815 78.5902 62.1711 78.0623 61.4178 77.7507C60.6646 77.439 59.8359 77.3577 59.0364 77.5169C58.237 77.6761 57.5027 78.0687 56.9263 78.6451C56.35 79.2215 55.9573 79.9558 55.7981 80.7553C55.6389 81.5547 55.7203 82.3833 56.0319 83.1365C56.3436 83.8898 56.8714 84.5337 57.5489 84.987C58.2264 85.4403 59.023 85.6827 59.8382 85.6834C60.9326 85.6834 61.9821 85.2486 62.756 84.4747C63.5298 83.7009 63.9646 82.6513 63.9646 81.5569Z" fill="#00D563"/>
    <path d="M91.8161 81.5568C91.8154 80.7415 91.573 79.9449 91.1196 79.2673C90.6661 78.5898 90.022 78.0618 89.2686 77.7503C88.5151 77.4388 87.6863 77.3577 86.8867 77.5172C86.0872 77.6766 85.3529 78.0695 84.7766 78.6462C84.2004 79.223 83.8081 79.9577 83.6493 80.7574C83.4905 81.557 83.5723 82.3858 83.8845 83.139C84.1966 83.8921 84.7251 84.5358 85.403 84.9887C86.0809 85.4416 86.8779 85.6833 87.6932 85.6833C88.787 85.6824 89.8357 85.2472 90.6088 84.4734C91.3819 83.6997 91.8161 82.6506 91.8161 81.5568Z" fill="#00D563"/>
    <path d="M119.676 81.5568C119.675 80.7415 119.432 79.9449 118.979 79.2673C118.525 78.5898 117.881 78.0618 117.128 77.7503C116.375 77.4388 115.546 77.3577 114.746 77.5172C113.947 77.6766 113.212 78.0695 112.636 78.6462C112.06 79.223 111.667 79.9577 111.509 80.7574C111.35 81.557 111.432 82.3858 111.744 83.139C112.056 83.8921 112.584 84.5358 113.262 84.9887C113.94 85.4416 114.737 85.6833 115.553 85.6833C116.646 85.6824 117.695 85.2472 118.468 84.4734C119.241 83.6997 119.676 82.6506 119.676 81.5568Z" fill="#00D563"/>
    <path d="M147.527 81.5568C147.526 80.7415 147.284 79.9449 146.831 79.2673C146.377 78.5898 145.733 78.0618 144.979 77.7503C144.226 77.4388 143.397 77.3577 142.598 77.5172C141.798 77.6766 141.064 78.0695 140.488 78.6462C139.911 79.223 139.519 79.9577 139.36 80.7574C139.201 81.557 139.283 82.3858 139.595 83.139C139.908 83.8921 140.436 84.5358 141.114 84.9887C141.792 85.4416 142.589 85.6833 143.404 85.6833C144.498 85.6824 145.547 85.2472 146.32 84.4734C147.093 83.6997 147.527 82.6506 147.527 81.5568Z" fill="#00D563"/>
    <path d="M175.379 81.5568C175.378 80.7415 175.136 79.9449 174.682 79.2673C174.229 78.5898 173.584 78.0618 172.831 77.7503C172.078 77.4388 171.249 77.3577 170.449 77.5172C169.65 77.6766 168.915 78.0695 168.339 78.6462C167.763 79.223 167.371 79.9577 167.212 80.7574C167.053 81.557 167.135 82.3858 167.447 83.139C167.759 83.8921 168.288 84.5358 168.966 84.9887C169.643 85.4416 170.44 85.6833 171.256 85.6833C172.35 85.6824 173.398 85.2472 174.171 84.4734C174.944 83.6997 175.379 82.6506 175.379 81.5568Z" fill="#00D563"/>
    <path d="M203.238 81.5568C203.237 80.7415 202.995 79.9449 202.541 79.2673C202.088 78.5898 201.444 78.0618 200.69 77.7503C199.937 77.4388 199.108 77.3577 198.309 77.5172C197.509 77.6766 196.775 78.0695 196.199 78.6462C195.622 79.223 195.23 79.9577 195.071 80.7574C194.912 81.557 194.994 82.3858 195.306 83.139C195.619 83.8921 196.147 84.5358 196.825 84.9887C197.503 85.4416 198.3 85.6833 199.115 85.6833C200.209 85.6824 201.258 85.2472 202.031 84.4734C202.804 83.6997 203.238 82.6506 203.238 81.5568Z" fill="#00D563"/>
    <path d="M231.097 81.5568C231.097 80.7415 230.854 79.9449 230.401 79.2673C229.947 78.5898 229.303 78.0618 228.55 77.7503C227.796 77.4388 226.968 77.3577 226.168 77.5172C225.368 77.6766 224.634 78.0695 224.058 78.6462C223.482 79.223 223.089 79.9577 222.931 80.7574C222.772 81.557 222.854 82.3858 223.166 83.139C223.478 83.8921 224.006 84.5358 224.684 84.9887C225.362 85.4416 226.159 85.6833 226.974 85.6833C228.068 85.6824 229.117 85.2472 229.89 84.4734C230.663 83.6997 231.097 82.6506 231.097 81.5568Z" fill="#00D563"/>
    <path d="M8.24581 107.373C8.24581 106.558 8.00398 105.76 7.55095 105.082C7.09792 104.404 6.454 103.876 5.70064 103.564C4.94727 103.252 4.11831 103.17 3.31855 103.329C2.51879 103.488 1.78414 103.881 1.20754 104.458C0.630944 105.034 0.238306 105.769 0.0792225 106.569C-0.0798606 107.368 0.00178578 108.197 0.313838 108.951C0.625891 109.704 1.1543 110.348 1.83231 110.801C2.51032 111.254 3.30746 111.496 4.12289 111.496C5.21636 111.496 6.265 111.061 7.03819 110.288C7.81139 109.515 8.24581 108.466 8.24581 107.373Z" fill="#00D563"/>
    <path d="M31.9823 111.496C34.2593 111.496 36.1052 109.65 36.1052 107.373C36.1052 105.096 34.2593 103.25 31.9823 103.25C29.7053 103.25 27.8594 105.096 27.8594 107.373C27.8594 109.65 29.7053 111.496 31.9823 111.496Z" fill="#00D563"/>
    <path d="M59.826 111.496C62.103 111.496 63.9489 109.65 63.9489 107.373C63.9489 105.096 62.103 103.25 59.826 103.25C57.549 103.25 55.7031 105.096 55.7031 107.373C55.7031 109.65 57.549 111.496 59.826 111.496Z" fill="#00D563"/>
    <path d="M87.6932 111.496C89.9702 111.496 91.8161 109.65 91.8161 107.373C91.8161 105.096 89.9702 103.25 87.6932 103.25C85.4162 103.25 83.5703 105.096 83.5703 107.373C83.5703 109.65 85.4162 111.496 87.6932 111.496Z" fill="#00D563"/>
    <path d="M119.675 107.373C119.675 106.558 119.434 105.76 118.981 105.082C118.528 104.404 117.884 103.876 117.13 103.564C116.377 103.252 115.548 103.17 114.748 103.329C113.948 103.488 113.214 103.881 112.637 104.458C112.061 105.034 111.668 105.769 111.509 106.569C111.35 107.368 111.431 108.197 111.744 108.951C112.056 109.704 112.584 110.348 113.262 110.801C113.94 111.254 114.737 111.496 115.553 111.496C116.646 111.496 117.695 111.061 118.468 110.288C119.241 109.515 119.675 108.466 119.675 107.373Z" fill="#00D563"/>
    <path d="M143.404 111.496C145.681 111.496 147.527 109.65 147.527 107.373C147.527 105.096 145.681 103.25 143.404 103.25C141.127 103.25 139.281 105.096 139.281 107.373C139.281 109.65 141.127 111.496 143.404 111.496Z" fill="#00D563"/>
    <path d="M171.256 111.496C173.533 111.496 175.379 109.65 175.379 107.373C175.379 105.096 173.533 103.25 171.256 103.25C168.979 103.25 167.133 105.096 167.133 107.373C167.133 109.65 168.979 111.496 171.256 111.496Z" fill="#00D563"/>
    <path d="M199.115 111.496C201.392 111.496 203.238 109.65 203.238 107.373C203.238 105.096 201.392 103.25 199.115 103.25C196.838 103.25 194.992 105.096 194.992 107.373C194.992 109.65 196.838 111.496 199.115 111.496Z" fill="#00D563"/>
    <path d="M231.097 107.373C231.097 106.558 230.856 105.76 230.403 105.082C229.95 104.404 229.306 103.876 228.552 103.564C227.799 103.252 226.97 103.17 226.17 103.329C225.37 103.488 224.636 103.881 224.059 104.458C223.483 105.034 223.09 105.769 222.931 106.569C222.772 107.368 222.853 108.197 223.165 108.951C223.477 109.704 224.006 110.348 224.684 110.801C225.362 111.254 226.159 111.496 226.975 111.496C228.068 111.496 229.117 111.061 229.89 110.288C230.663 109.515 231.097 108.466 231.097 107.373Z" fill="#00D563"/>
    <path d="M8.24581 133.182C8.24581 132.366 8.00398 131.569 7.55095 130.891C7.09792 130.213 6.454 129.684 5.70064 129.372C4.94727 129.06 4.11831 128.979 3.31855 129.138C2.51879 129.297 1.78414 129.69 1.20754 130.266C0.630944 130.843 0.238306 131.577 0.0792225 132.377C-0.0798606 133.177 0.00178578 134.006 0.313838 134.759C0.625891 135.513 1.1543 136.157 1.83231 136.61C2.51032 137.063 3.30746 137.304 4.12289 137.304C4.66432 137.304 5.20042 137.198 5.70064 136.991C6.20085 136.783 6.65535 136.48 7.03819 136.097C7.42104 135.714 7.72475 135.259 7.93195 134.759C8.13915 134.259 8.24581 133.723 8.24581 133.182Z" fill="#00D563"/>
    <path d="M31.9823 137.304C34.2593 137.304 36.1052 135.459 36.1052 133.181C36.1052 130.904 34.2593 129.059 31.9823 129.059C29.7053 129.059 27.8594 130.904 27.8594 133.181C27.8594 135.459 29.7053 137.304 31.9823 137.304Z" fill="#00D563"/>
    <path d="M59.826 137.304C62.103 137.304 63.9489 135.459 63.9489 133.181C63.9489 130.904 62.103 129.059 59.826 129.059C57.549 129.059 55.7031 130.904 55.7031 133.181C55.7031 135.459 57.549 137.304 59.826 137.304Z" fill="#00D563"/>
    <path d="M87.6932 137.304C89.9702 137.304 91.8161 135.459 91.8161 133.181C91.8161 130.904 89.9702 129.059 87.6932 129.059C85.4162 129.059 83.5703 130.904 83.5703 133.181C83.5703 135.459 85.4162 137.304 87.6932 137.304Z" fill="#00D563"/>
    <path d="M119.675 133.182C119.675 132.366 119.434 131.569 118.981 130.891C118.528 130.213 117.884 129.684 117.13 129.372C116.377 129.06 115.548 128.979 114.748 129.138C113.948 129.297 113.214 129.69 112.637 130.266C112.061 130.843 111.668 131.577 111.509 132.377C111.35 133.177 111.431 134.006 111.744 134.759C112.056 135.513 112.584 136.157 113.262 136.61C113.94 137.063 114.737 137.304 115.553 137.304C116.094 137.304 116.63 137.198 117.13 136.991C117.631 136.783 118.085 136.48 118.468 136.097C118.851 135.714 119.154 135.259 119.362 134.759C119.569 134.259 119.675 133.723 119.675 133.182Z" fill="#00D563"/>
    <path d="M143.404 137.304C145.681 137.304 147.527 135.459 147.527 133.181C147.527 130.904 145.681 129.059 143.404 129.059C141.127 129.059 139.281 130.904 139.281 133.181C139.281 135.459 141.127 137.304 143.404 137.304Z" fill="#00D563"/>
    <path d="M171.256 137.304C173.533 137.304 175.379 135.459 175.379 133.181C175.379 130.904 173.533 129.059 171.256 129.059C168.979 129.059 167.133 130.904 167.133 133.181C167.133 135.459 168.979 137.304 171.256 137.304Z" fill="#00D563"/>
    <path d="M199.115 137.304C201.392 137.304 203.238 135.459 203.238 133.181C203.238 130.904 201.392 129.059 199.115 129.059C196.838 129.059 194.992 130.904 194.992 133.181C194.992 135.459 196.838 137.304 199.115 137.304Z" fill="#00D563"/>
    <path d="M231.097 133.182C231.097 132.366 230.856 131.569 230.403 130.891C229.95 130.213 229.306 129.684 228.552 129.372C227.799 129.06 226.97 128.979 226.17 129.138C225.37 129.297 224.636 129.69 224.059 130.266C223.483 130.843 223.09 131.577 222.931 132.377C222.772 133.177 222.853 134.006 223.165 134.759C223.477 135.513 224.006 136.157 224.684 136.61C225.362 137.063 226.159 137.304 226.975 137.304C227.516 137.304 228.052 137.198 228.552 136.991C229.052 136.783 229.507 136.48 229.89 136.097C230.273 135.714 230.576 135.259 230.784 134.759C230.991 134.259 231.097 133.723 231.097 133.182Z" fill="#00D563"/>
    <path d="M8.24581 158.994C8.24581 158.179 8.00398 157.381 7.55095 156.703C7.09792 156.025 6.454 155.497 5.70064 155.185C4.94727 154.873 4.11831 154.791 3.31855 154.95C2.51879 155.109 1.78414 155.502 1.20754 156.079C0.630944 156.655 0.238306 157.39 0.0792225 158.19C-0.0798606 158.989 0.00178578 159.818 0.313838 160.572C0.625891 161.325 1.1543 161.969 1.83231 162.422C2.51032 162.875 3.30746 163.117 4.12289 163.117C5.21636 163.117 6.265 162.683 7.03819 161.909C7.81139 161.136 8.24581 160.087 8.24581 158.994Z" fill="#00D563"/>
    <path d="M31.9823 163.117C34.2593 163.117 36.1052 161.271 36.1052 158.994C36.1052 156.717 34.2593 154.871 31.9823 154.871C29.7053 154.871 27.8594 156.717 27.8594 158.994C27.8594 161.271 29.7053 163.117 31.9823 163.117Z" fill="#00D563"/>
    <path d="M59.826 163.117C62.103 163.117 63.9489 161.271 63.9489 158.994C63.9489 156.717 62.103 154.871 59.826 154.871C57.549 154.871 55.7031 156.717 55.7031 158.994C55.7031 161.271 57.549 163.117 59.826 163.117Z" fill="#00D563"/>
    <path d="M87.6932 163.117C89.9702 163.117 91.8161 161.271 91.8161 158.994C91.8161 156.717 89.9702 154.871 87.6932 154.871C85.4162 154.871 83.5703 156.717 83.5703 158.994C83.5703 161.271 85.4162 163.117 87.6932 163.117Z" fill="#00D563"/>
    <path d="M119.675 158.994C119.675 158.179 119.434 157.381 118.981 156.703C118.528 156.025 117.884 155.497 117.13 155.185C116.377 154.873 115.548 154.791 114.748 154.95C113.948 155.109 113.214 155.502 112.637 156.079C112.061 156.655 111.668 157.39 111.509 158.19C111.35 158.989 111.431 159.818 111.744 160.572C112.056 161.325 112.584 161.969 113.262 162.422C113.94 162.875 114.737 163.117 115.553 163.117C116.646 163.117 117.695 162.683 118.468 161.909C119.241 161.136 119.675 160.087 119.675 158.994Z" fill="#00D563"/>
    <path d="M143.404 163.117C145.681 163.117 147.527 161.271 147.527 158.994C147.527 156.717 145.681 154.871 143.404 154.871C141.127 154.871 139.281 156.717 139.281 158.994C139.281 161.271 141.127 163.117 143.404 163.117Z" fill="#00D563"/>
    <path d="M171.256 163.117C173.533 163.117 175.379 161.271 175.379 158.994C175.379 156.717 173.533 154.871 171.256 154.871C168.979 154.871 167.133 156.717 167.133 158.994C167.133 161.271 168.979 163.117 171.256 163.117Z" fill="#00D563"/>
    <path d="M199.115 163.117C201.392 163.117 203.238 161.271 203.238 158.994C203.238 156.717 201.392 154.871 199.115 154.871C196.838 154.871 194.992 156.717 194.992 158.994C194.992 161.271 196.838 163.117 199.115 163.117Z" fill="#00D563"/>
    <path d="M231.097 158.994C231.097 158.179 230.856 157.381 230.403 156.703C229.95 156.025 229.306 155.497 228.552 155.185C227.799 154.873 226.97 154.791 226.17 154.95C225.37 155.109 224.636 155.502 224.059 156.079C223.483 156.655 223.09 157.39 222.931 158.19C222.772 158.989 222.853 159.818 223.165 160.572C223.477 161.325 224.006 161.969 224.684 162.422C225.362 162.875 226.159 163.117 226.975 163.117C228.068 163.117 229.117 162.683 229.89 161.909C230.663 161.136 231.097 160.087 231.097 158.994Z" fill="#00D563"/>
    <path d="M31.9823 188.925C34.2593 188.925 36.1052 187.08 36.1052 184.803C36.1052 182.526 34.2593 180.68 31.9823 180.68C29.7053 180.68 27.8594 182.526 27.8594 184.803C27.8594 187.08 29.7053 188.925 31.9823 188.925Z" fill="#00D563"/>
    <path d="M59.826 188.925C62.103 188.925 63.9489 187.08 63.9489 184.803C63.9489 182.526 62.103 180.68 59.826 180.68C57.549 180.68 55.7031 182.526 55.7031 184.803C55.7031 187.08 57.549 188.925 59.826 188.925Z" fill="#00D563"/>
    <path d="M87.6932 188.925C89.9702 188.925 91.8161 187.08 91.8161 184.803C91.8161 182.526 89.9702 180.68 87.6932 180.68C85.4162 180.68 83.5703 182.526 83.5703 184.803C83.5703 187.08 85.4162 188.925 87.6932 188.925Z" fill="#00D563"/>
    <path d="M119.675 184.803C119.675 183.987 119.434 183.19 118.981 182.512C118.528 181.834 117.884 181.306 117.13 180.994C116.377 180.681 115.548 180.6 114.748 180.759C113.948 180.918 113.214 181.311 112.637 181.887C112.061 182.464 111.668 183.198 111.509 183.998C111.35 184.798 111.431 185.627 111.744 186.38C112.056 187.134 112.584 187.778 113.262 188.231C113.94 188.684 114.737 188.925 115.553 188.925C116.646 188.925 117.695 188.491 118.468 187.718C119.241 186.945 119.675 185.896 119.675 184.803Z" fill="#00D563"/>
    <path d="M143.404 188.925C145.681 188.925 147.527 187.08 147.527 184.803C147.527 182.526 145.681 180.68 143.404 180.68C141.127 180.68 139.281 182.526 139.281 184.803C139.281 187.08 141.127 188.925 143.404 188.925Z" fill="#00D563"/>
    <path d="M171.256 188.925C173.533 188.925 175.379 187.08 175.379 184.803C175.379 182.526 173.533 180.68 171.256 180.68C168.979 180.68 167.133 182.526 167.133 184.803C167.133 187.08 168.979 188.925 171.256 188.925Z" fill="#00D563"/>
    <path d="M199.115 188.925C201.392 188.925 203.238 187.08 203.238 184.803C203.238 182.526 201.392 180.68 199.115 180.68C196.838 180.68 194.992 182.526 194.992 184.803C194.992 187.08 196.838 188.925 199.115 188.925Z" fill="#00D563"/>
    <path d="M59.826 214.738C62.103 214.738 63.9489 212.892 63.9489 210.615C63.9489 208.338 62.103 206.492 59.826 206.492C57.549 206.492 55.7031 208.338 55.7031 210.615C55.7031 212.892 57.549 214.738 59.826 214.738Z" fill="#00D563"/>
    <path d="M87.6932 214.738C89.9702 214.738 91.8161 212.892 91.8161 210.615C91.8161 208.338 89.9702 206.492 87.6932 206.492C85.4162 206.492 83.5703 208.338 83.5703 210.615C83.5703 212.892 85.4162 214.738 87.6932 214.738Z" fill="#00D563"/>
    <path d="M119.675 210.619C119.675 209.804 119.434 209.006 118.981 208.328C118.528 207.65 117.884 207.122 117.13 206.81C116.377 206.498 115.548 206.416 114.748 206.575C113.948 206.734 113.214 207.127 112.637 207.704C112.061 208.28 111.668 209.015 111.509 209.815C111.35 210.615 111.431 211.443 111.744 212.197C112.056 212.95 112.584 213.594 113.262 214.047C113.94 214.5 114.737 214.742 115.553 214.742C116.646 214.742 117.695 214.308 118.468 213.534C119.241 212.761 119.675 211.713 119.675 210.619Z" fill="#00D563"/>
    <path d="M143.404 214.738C145.681 214.738 147.527 212.892 147.527 210.615C147.527 208.338 145.681 206.492 143.404 206.492C141.127 206.492 139.281 208.338 139.281 210.615C139.281 212.892 141.127 214.738 143.404 214.738Z" fill="#00D563"/>
    <path d="M171.256 214.738C173.533 214.738 175.379 212.892 175.379 210.615C175.379 208.338 173.533 206.492 171.256 206.492C168.979 206.492 167.133 208.338 167.133 210.615C167.133 212.892 168.979 214.738 171.256 214.738Z" fill="#00D563"/>
  </g>
</svg>