<svg width="40" height="40" viewBox="0 0 40 40" fill="none" xmlns="http://www.w3.org/2000/svg">
<g clip-path="url(#clip0_3215_162)">
<path d="M16.1384 3.16421C17.1713 2.13132 18.5447 1.56249 20.0053 1.56249C21.466 1.56249 22.8394 2.13132 23.8723 3.16421C24.0249 3.31678 24.2248 3.39303 24.4247 3.39303C25.1029 3.40506 25.4723 2.53991 24.9771 2.05937C23.6492 0.731325 21.8835 0 20.0053 0C18.1272 0 16.3615 0.731325 15.0335 2.05937C14.7284 2.36444 14.7284 2.85913 15.0335 3.16428C15.3387 3.46936 15.8333 3.46936 16.1384 3.16421Z" fill="#00D563"/>
<path d="M17.2483 4.26932C16.5427 5.02557 17.5963 6.08025 18.3533 5.37408C18.7958 4.93143 19.3844 4.68768 20.0104 4.68768C20.6365 4.68768 21.225 4.93151 21.6677 5.37416C21.8203 5.52674 22.0202 5.60299 22.2201 5.60299C22.8992 5.61486 23.2672 4.74971 22.7725 4.26932C21.3186 2.75402 18.7022 2.75394 17.2483 4.26932Z" fill="#00D563"/>
<path d="M30.1641 7.03018H20.7888C20.7502 5.99487 19.264 5.99542 19.226 7.03018H9.85155C8.55921 7.03018 7.50781 8.08158 7.50781 9.37392V39.2177C7.50781 39.6492 7.85765 39.999 8.28906 39.999H31.7265C32.1579 39.999 32.5077 39.6492 32.5077 39.2177V9.37392C32.5077 8.08158 31.4564 7.03018 30.1641 7.03018ZM30.9452 38.4364H9.07031V9.37392C9.07031 8.94314 9.42077 8.59268 9.85155 8.59268H30.1641C30.5948 8.59268 30.9452 8.94314 30.9452 9.37392V38.4364Z" fill="#00D563"/>
<path d="M26.1131 21.458C28.8116 16.8818 25.3277 10.8703 20.0081 10.9381C14.6894 10.8701 11.204 16.8827 13.9033 21.458C8.57156 26.7726 12.397 36.1122 20.0084 36.0942C27.6194 36.1123 31.4452 26.7711 26.1131 21.458ZM20.0082 12.5005C24.0236 12.4511 26.7437 16.8771 24.8913 20.4323C24.2521 19.9894 23.5502 19.6308 22.8019 19.3729C23.8575 17.3566 22.2928 14.8049 20.0082 14.8442C17.7241 14.8048 16.1584 17.357 17.2146 19.373C16.4662 19.6309 15.7643 19.9894 15.1251 20.4324C13.2724 16.8766 15.9937 12.4509 20.0082 12.5005ZM18.8234 18.9883C17.9543 17.9973 18.6854 16.3962 20.0083 16.4067C21.331 16.3962 22.0624 17.9976 21.1931 18.9883C20.4215 18.88 19.5949 18.88 18.8234 18.9883ZM20.0083 34.5317C16.1312 34.5317 12.977 31.3775 12.977 27.5005C13.3305 18.1855 26.6874 18.188 27.0395 27.5006C27.0395 31.3775 23.8853 34.5317 20.0083 34.5317Z" fill="#00D563"/>
<path d="M20.0079 23.5938C17.854 23.5938 16.1016 25.3461 16.1016 27.5C16.298 32.675 23.7184 32.6737 23.914 27.4999C23.914 25.3461 22.1617 23.5938 20.0079 23.5938ZM20.0079 29.8437C18.7155 29.8437 17.6641 28.7923 17.6641 27.5C17.7819 24.3951 22.2341 24.3957 22.3515 27.5C22.3515 28.7923 21.3001 29.8437 20.0079 29.8437Z" fill="#00D563"/>
<path d="M11.4144 35.3125C10.9827 35.3122 10.6328 35.6621 10.6328 36.0937C10.6712 37.1287 12.1574 37.1289 12.1956 36.0937C12.1956 35.6623 11.8458 35.3125 11.4144 35.3125Z" fill="#00D563"/>
<path d="M28.6016 35.3125C28.1702 35.3125 27.8203 35.6623 27.8203 36.0937C27.8586 37.129 29.3452 37.1288 29.3831 36.0937C29.3831 35.6623 29.033 35.3125 28.6016 35.3125Z" fill="#00D563"/>
<path d="M11.4144 11.7177C11.8458 11.7177 12.1956 11.368 12.1956 10.9365C12.1573 9.90126 10.6708 9.9015 10.6328 10.9365C10.6328 11.368 10.9829 11.7177 11.4144 11.7177Z" fill="#00D563"/>
<path d="M28.6016 10.1562C28.1702 10.1562 27.8203 10.506 27.8203 10.9375C27.8586 11.9727 29.3452 11.9726 29.3831 10.9375C29.3831 10.506 29.033 10.1562 28.6016 10.1562Z" fill="#00D563"/>
<path d="M1.57031 27.4976C1.57031 26.0368 2.13913 24.6636 3.1721 23.6306C3.47717 23.3255 3.47717 22.8308 3.1721 22.5257C2.86694 22.2206 2.37241 22.2206 2.06718 22.5257C0.739138 23.8537 0.0078125 25.6194 0.0078125 27.4975C0.0078125 29.3757 0.739138 31.1414 2.06718 32.4694C2.37233 32.7745 2.86694 32.7745 3.1721 32.4694C3.47717 32.1643 3.47717 31.6696 3.1721 31.3645C2.13913 30.3317 1.57031 28.9584 1.57031 27.4976Z" fill="#00D563"/>
<path d="M5.38187 24.7366C5.07671 24.4315 4.58203 24.4315 4.27695 24.7366C3.53922 25.4744 3.13281 26.4554 3.13281 27.4987C3.13281 28.5421 3.53914 29.523 4.27695 30.2608C4.5821 30.566 5.07663 30.5659 5.38187 30.2608C5.68694 29.9557 5.68694 29.4611 5.38187 29.156C4.93921 28.7132 4.69538 28.1247 4.69538 27.4987C4.69538 26.8727 4.93921 26.2841 5.38187 25.8414C5.68702 25.5363 5.68702 25.0417 5.38187 24.7366Z" fill="#00D563"/>
<path d="M37.9471 22.5295C37.1915 21.8244 36.1359 22.8764 36.8423 23.6344C37.8752 24.6673 38.4441 26.0407 38.4441 27.5014C38.4441 28.9621 37.8752 30.3354 36.8423 31.3683C36.5372 31.6734 36.5372 32.1681 36.8423 32.4732C36.9948 32.6258 37.1948 32.702 37.3947 32.702C37.5946 32.702 37.7945 32.6258 37.9471 32.4732C40.6747 29.856 40.6747 25.1467 37.9471 22.5295Z" fill="#00D563"/>
<path d="M35.7361 24.7366C34.9799 24.0311 33.9251 25.0844 34.6313 25.8415C35.074 26.2842 35.3178 26.8728 35.3178 27.4988C35.3178 28.1248 35.074 28.7134 34.6313 29.1561C34.1373 29.6356 34.5038 30.5019 35.1838 30.4897C35.3836 30.4897 35.5836 30.4135 35.7362 30.2609C37.2515 28.807 37.2515 26.1904 35.7361 24.7366Z" fill="#00D563"/>
</g>
<defs>
<clipPath id="clip0_3215_162">
<rect width="40" height="40" fill="white"/>
</clipPath>
</defs>
</svg>
