<svg width="40" height="40" viewBox="0 0 40 40" fill="none" xmlns="http://www.w3.org/2000/svg">
<path d="M15.4023 19.4511L14.5715 19.107C14.387 19.0306 14.2427 18.8855 14.1652 18.6983C13.8994 18.0921 14.545 17.4544 15.1486 17.714L15.564 17.886C16.5341 18.2473 17.104 16.8737 16.162 16.4424L15.7465 16.2703C13.8545 15.4857 11.9302 17.4006 12.7216 19.2962C13.1396 20.2967 13.887 20.5221 14.8044 20.8947C15.1884 21.0537 15.3714 21.4957 15.2123 21.8798C15.0669 22.2539 14.5948 22.4497 14.2273 22.2879L13.812 22.1158C13.4135 21.9507 12.9563 22.1399 12.7912 22.5386C12.626 22.9372 12.8153 23.3942 13.214 23.5594L13.6295 23.7315C14.7679 24.2304 16.2045 23.6346 16.6559 22.4777C17.1447 21.2976 16.5823 19.9399 15.4023 19.4511Z" fill="white"/>
<path d="M20.227 19.452L19.3962 19.1079C19.2117 19.0315 19.0674 18.8864 18.9899 18.6992C18.7242 18.0928 19.3696 17.4554 19.9732 17.7148L20.3886 17.8869C21.3586 18.2482 21.9286 16.8747 20.9866 16.4434L20.5712 16.2712C19.4344 15.7723 17.9954 16.368 17.5447 17.525C17.0456 18.6617 17.6415 20.1005 18.7983 20.5514L19.6292 20.8956C20.0132 21.0546 20.1962 21.4965 20.0371 21.8807C19.8781 22.2647 19.4361 22.4478 19.0521 22.2887L18.6367 22.1166C18.2383 21.9515 17.7811 22.1407 17.616 22.5394C17.4508 22.938 17.6401 23.395 18.0388 23.5602L18.4542 23.7323C21.3329 24.7883 23.0245 20.7582 20.227 19.452Z" fill="white"/>
<path d="M25.1094 16.0938H23.5469C23.1155 16.0938 22.7656 16.4435 22.7656 16.875V23.125C22.7656 23.5565 23.1155 23.9062 23.5469 23.9062H25.1094C26.4017 23.9062 27.453 22.8548 27.453 21.5625V18.4375C27.453 17.1452 26.4017 16.0938 25.1094 16.0938ZM25.8905 21.5625C25.8905 21.9933 25.5402 22.3438 25.1094 22.3438H24.3281V17.6562H25.1094C25.5402 17.6562 25.8905 18.0067 25.8905 18.4375V21.5625Z" fill="white"/>
<path d="M28.2031 12.9688H11.7969C10.5045 12.9688 9.45312 14.0202 9.45312 15.3125V24.6875C9.45312 25.9798 10.5045 27.0312 11.7969 27.0312H28.2031C29.4954 27.0312 30.5467 25.9798 30.5467 24.6875V15.3125C30.5467 14.0202 29.4954 12.9688 28.2031 12.9688ZM28.9842 24.6875C28.9842 25.1182 28.6338 25.4687 28.2031 25.4687H11.7969C11.3661 25.4687 11.0156 25.1182 11.0156 24.6875V15.3125C11.0156 14.8817 11.3661 14.5312 11.7969 14.5312H28.2031C28.6338 14.5312 28.9842 14.8817 28.9842 15.3125V24.6875Z" fill="white"/>
<path d="M32.4999 0H7.49999C6.20765 0 5.15625 1.0514 5.15625 2.34374V37.6563C5.15625 38.9486 6.20765 40 7.49999 40H32.4999C33.7922 40 34.8436 38.9486 34.8436 37.6563V2.34374C34.8436 1.0514 33.7922 0 32.4999 0ZM7.49991 1.56249H32.4998C32.9306 1.56249 33.281 1.91296 33.281 2.34374V4.68748H6.71859V2.34374C6.71867 1.91296 7.06913 1.56249 7.49991 1.56249ZM28.9842 38.4375H26.6405V35.3125H28.203C28.6338 35.3125 28.9842 35.663 28.9842 36.0938V38.4375ZM25.078 38.4375H22.7342V35.3125H25.078V38.4375ZM21.1717 38.4375H18.828V35.3125H21.1717V38.4375ZM17.2655 38.4375H14.9218V35.3125H17.2655V38.4375ZM13.3593 38.4375H11.0155V36.0937C11.0155 35.6629 11.366 35.3124 11.7968 35.3124H13.3593V38.4375ZM32.4999 38.4375H30.5467V36.0937C30.5467 34.8013 29.4954 33.7499 28.203 33.7499H11.7968C10.5045 33.7499 9.45311 34.8013 9.45311 36.0937V38.4375H7.49999C7.06921 38.4375 6.71874 38.087 6.71874 37.6563V6.24998H33.2811V37.6563C33.2811 38.087 32.9306 38.4375 32.4999 38.4375Z" fill="white"/>
</svg>
